STARTFONT 2.1
COMMENT ======================================================================
COMMENT Font Status: Complete Base; No Extensions
COMMENT ***********
COMMENT Fidel15.bdf is a 50% scale from EthioLaTeX ethio[xyz]10.300pk  
COMMENT ***********
COMMENT This Is The Unicode Ordered Ethiopic Font In JIS Encoding Based On UTC-95-055A.
COMMENT Extension candidates are added in 4 rows at the end in a compressed 16
COMMENT column format. SERA character names are given for alphabetic elements;
COMMENT punctuations and numbers are named descriptively.
COMMENT Unicode encoding begins at hex 1200 / dec 4608
COMMENT JIS encoding begins at Kuten [90,1] (hex 7a21 / dec 31265)
COMMENT ***********
COMMENT Another Fine Admas Product : fisseha@cig.mot.com
COMMENT Available at ftp://ftp.cs.indiana.edu/pub/fidel/fonts/webfonts.tar.Z
COMMENT ======================================================================
FONT -Admas-Fidel-Medium-R-Normal--15-150-100-100-C-363-jisx0208.1983-0
SIZE 15 100 100
FONTBOUNDINGBOX 29 22 -1 -1
STARTPROPERTIES 4
FONT_ASCENT 21
FONT_DESCENT 3
COPYRIGHT "GNU CopyLeft"
DEFAULT_CHAR 32103
ENDPROPERTIES
CHARS 354
STARTCHAR he
ENCODING  31265
SWIDTH 312 0
DWIDTH 15 0
BBX 12 14 0 0
BITMAP
00f0
78f0
78f0
78f0
78f0
79f0
f1f0
f1e0
f1e0
f1c0
f1c0
f380
7e00
3800
ENDCHAR
STARTCHAR hu
ENCODING  31266
SWIDTH 456 0
DWIDTH 20 0
BBX 17 14 0 0
BITMAP
01e000
39e000
79e000
79f000
78f000
78ff80
71ff80
f1e780
f1e380
f1e000
f1c000
f38000
7f0000
380000
ENDCHAR
STARTCHAR hi
ENCODING  31267
SWIDTH 336 0
DWIDTH 15 0
BBX 12 18 0 -2
BITMAP
23c0
f3c0
f3c0
f3c0
f3c0
f380
ff80
ff00
0f00
0f00
1e00
1e00
3c00
3c60
3ce0
3fe0
11e0
00f0
ENDCHAR
STARTCHAR ha
ENCODING  31268
SWIDTH 264 0
DWIDTH 13 0
BBX 10 17 0 0
BITMAP
03c0
f3c0
fbc0
f3c0
f3c0
f3c0
f380
ff80
0f00
0f00
1e00
1e00
1e00
3c00
3c00
3c00
3c00
ENDCHAR
STARTCHAR hE
ENCODING  31269
SWIDTH 360 0
DWIDTH 17 0
BBX 14 17 0 0
BITMAP
01c0
f3c0
f9c0
79c0
73c0
73c0
ff80
7f80
0780
0700
0f00
0f3c
0e3c
1e3c
1e38
1ff0
1f80
ENDCHAR
STARTCHAR h
ENCODING  31270
SWIDTH 336 0
DWIDTH 15 0
BBX 12 14 1 0
BITMAP
01e0
f1f0
f1f0
f0f0
f0f0
f8f0
f8f0
78f0
79e0
79e0
79c0
79c0
7f00
1c00
ENDCHAR
STARTCHAR ho
ENCODING  31271
SWIDTH 408 0
DWIDTH 19 0
BBX 16 15 0 0
BITMAP
003e
01ef
31ef
f9ef
79ee
79fc
79e0
71e0
f1e0
f1e0
f1c0
f1c0
f380
f700
7c00
ENDCHAR
STARTCHAR le
ENCODING  31273
SWIDTH 336 0
DWIDTH 15 0
BBX 12 16 0 -1
BITMAP
1e00
1e00
0f00
1f80
3fc0
39c0
79e0
79e0
f1e0
f1e0
f1e0
f1e0
f1e0
f1f0
f8f0
4080
ENDCHAR
STARTCHAR lu
ENCODING  31274
SWIDTH 432 0
DWIDTH 19 0
BBX 16 16 0 -1
BITMAP
1e00
1e00
1f00
1f80
3fc0
3bc0
79ef
79ff
f1ef
f1e7
f1e0
f1e0
f1e0
f1e0
f9f0
4080
ENDCHAR
STARTCHAR li
ENCODING  31275
SWIDTH 456 0
DWIDTH 21 0
BBX 18 17 0 -2
BITMAP
1e0000
1e0000
0f0000
1f8000
3fc000
39e000
79e000
79e000
f1e000
f1e000
f1e000
f1e000
f1e380
f1e780
f8ff80
40c7c0
0003c0
ENDCHAR
STARTCHAR la
ENCODING  31276
SWIDTH 336 0
DWIDTH 14 0
BBX 11 16 1 -1
BITMAP
1c00
3e00
1f00
3f80
7fc0
7bc0
f3c0
f3c0
f3c0
f3c0
f3c0
43e0
03e0
01e0
01e0
0080
ENDCHAR
STARTCHAR lE
ENCODING  31277
SWIDTH 408 0
DWIDTH 19 0
BBX 16 16 0 0
BITMAP
1e00
1e00
1f00
1f80
1fc0
3fc0
79e0
79e0
f1e0
f1e0
f1e4
f1ff
f1e7
f1e7
f1ef
70fe
ENDCHAR
STARTCHAR l
ENCODING  31278
SWIDTH 408 0
DWIDTH 18 0
BBX 15 15 1 0
BITMAP
0700
0f00
07c0
07e0
0fe0
1ff0
3cf0
3878
7b78
7fbc
f7bc
f7bc
ff3c
f81e
e01e
ENDCHAR
STARTCHAR lo
ENCODING  31279
SWIDTH 504 0
DWIDTH 23 0
BBX 20 16 0 -1
BITMAP
3e0000
1e0000
1f0000
1f8000
3fc000
3bc3e0
79fef0
79fe70
f1ee70
f1efe0
f1e600
f1e000
f1e000
f1e000
f9f000
408000
ENDCHAR
STARTCHAR lWa
ENCODING  31280
SWIDTH 408 0
DWIDTH 19 0
BBX 16 18 0 -3
BITMAP
1e00
1e00
1f00
3f80
7fc0
73c0
f3c0
f1e0
f1e0
f1e0
f1e0
41e0
01e0
01e0
1fff
3c0f
380f
3007
ENDCHAR
STARTCHAR He
ENCODING  31281
SWIDTH 432 0
DWIDTH 20 0
BBX 17 15 0 -1
BITMAP
01e000
01e000
01e000
01e000
01c000
01dc00
0ffe00
39cf00
73cf00
f3cf00
f3cf00
f3cf00
f3cf00
f3cf80
410400
ENDCHAR
STARTCHAR Hu
ENCODING  31282
SWIDTH 552 0
DWIDTH 25 0
BBX 22 15 0 -1
BITMAP
01e000
01e000
01e000
01e000
01c000
01dc00
0ffe00
39cf00
73cf38
f3cff8
f3cf78
f3cf3c
f3cf00
f3cf00
410400
ENDCHAR
STARTCHAR Hi
ENCODING  31283
SWIDTH 552 0
DWIDTH 25 0
BBX 22 16 0 -2
BITMAP
01e000
01e000
01e000
01e000
01e000
01dc00
0ffe00
39cf00
71cf00
f3cf00
f3cf00
f3cf18
f3cf3c
f3cffc
41043c
00001c
ENDCHAR
STARTCHAR Ha
ENCODING  31284
SWIDTH 432 0
DWIDTH 20 0
BBX 17 14 0 0
BITMAP
01e000
01e000
01e000
01e000
01c000
07fe00
3fff00
73cf00
f3cf00
f3cf00
f3cf00
000f00
000f00
000f80
ENDCHAR
STARTCHAR HE
ENCODING  31285
SWIDTH 552 0
DWIDTH 24 0
BBX 21 15 1 -1
BITMAP
01c000
03e000
01c000
01c000
01c000
01fc00
0ffe00
39cf00
73cf00
f3cff0
f3cff8
f3cf38
f3cf38
f3cff0
410400
ENDCHAR
STARTCHAR H
ENCODING  31286
SWIDTH 432 0
DWIDTH 20 0
BBX 17 17 0 0
BITMAP
1e0000
1e0000
0e0000
1fe000
01e000
01e000
01e000
01e000
03fe00
1fcf00
39cf00
71cf00
f3cf00
f3cf00
f3cf00
f3cf80
f3c780
ENDCHAR
STARTCHAR Ho
ENCODING  31287
SWIDTH 432 0
DWIDTH 20 0
BBX 17 15 0 -1
BITMAP
01e000
01e000
01e000
01e000
01e000
01fe00
0fff00
39cf00
73cf00
f3cf00
f3cf80
f3c700
f00000
f00000
400000
ENDCHAR
STARTCHAR HWa
ENCODING  31288
SWIDTH 432 0
DWIDTH 24 0
BBX 21 17 0 -3
BITMAP
01e000
01e000
01e000
01e000
01c000
07fe00
3fff00
73cf00
f3cf00
f3cf00
f3cf00
000f00
000f00
007ff0
00fff8
007078
00e038
ENDCHAR
STARTCHAR me
ENCODING  31289
SWIDTH 528 0
DWIDTH 23 0
BBX 20 10 0 3
BITMAP
003fe0
0ffef0
39de70
71de70
73de70
f39ef0
f39ee0
f79fc0
f70800
780000
ENDCHAR
STARTCHAR mu
ENCODING  31290
SWIDTH 648 0
DWIDTH 29 0
BBX 26 10 0 3
BITMAP
003fe180
0ffef380
39de7f80
71de7fc0
73de73c0
f39ef000
f39ee000
f79fc000
f7080000
78000000
ENDCHAR
STARTCHAR mi
ENCODING  31291
SWIDTH 552 0
DWIDTH 25 0
BBX 22 17 0 -2
BITMAP
007fc0
3ffde0
73bde0
73b9e0
f3b9c0
f7bfc0
7f3fc0
300380
000780
000780
000700
000f00
000f18
000f78
000ff8
000c78
00003c
ENDCHAR
STARTCHAR ma
ENCODING  31292
SWIDTH 480 0
DWIDTH 22 0
BBX 19 15 0 0
BITMAP
1fffe0
33fde0
73bde0
f3bde0
e7b9e0
f73fc0
7c03c0
000380
000780
000780
000f00
000f00
000f00
001f00
000f00
ENDCHAR
STARTCHAR mE
ENCODING  31293
SWIDTH 528 0
DWIDTH 24 0
BBX 21 16 0 -1
BITMAP
00ffc0
3ffde0
73bde0
73bde0
f7bde0
f7bfe0
7f3fc0
3003c0
0003c0
000780
0007e0
000ff0
000f38
000f38
000ff0
000fc0
ENDCHAR
STARTCHAR m
ENCODING  31294
SWIDTH 480 0
DWIDTH 22 0
BBX 19 15 0 0
BITMAP
007fc0
1ffde0
3b9ce0
7b9ce0
739ce0
f3bdc0
f79f80
ff8000
7f0000
1e0000
1c0000
380000
780000
780000
780000
ENDCHAR
STARTCHAR mo
ENCODING  31295
SWIDTH 480 0
DWIDTH 22 0
BBX 19 16 0 0
BITMAP
0fffc0
3ffce0
7bfce0
73bce0
f3bce0
f7bdc0
f79f80
ff8800
7f8000
0f0000
0f0000
0f0000
0f0000
0f0000
1f0000
0e0000
ENDCHAR
STARTCHAR mWa
ENCODING  31296
SWIDTH 528 0
DWIDTH 24 0
BBX 21 18 0 -3
BITMAP
1fffc0
33bdc0
73b9e0
f3b9c0
e779c0
f73fc0
7803c0
000780
000780
000780
000f00
000f00
001f00
001ef0
01fff0
01c070
01c078
010000
ENDCHAR
STARTCHAR `se/s2e
ENCODING  31297
SWIDTH 432 0
DWIDTH 20 0
BBX 17 10 1 3
BITMAP
01cf00
7bef00
79ef80
79e700
f1cf00
f1cf00
f3de00
f3b800
ff0000
f80000
ENDCHAR
STARTCHAR `su/s2u
ENCODING  31298
SWIDTH 528 0
DWIDTH 24 0
BBX 21 10 1 3
BITMAP
01cf00
fbef00
79ef00
79ef00
f1cf00
f1cf10
f3fff0
f3bcf0
ff0078
f80038
ENDCHAR
STARTCHAR `si/s2i
ENCODING  31299
SWIDTH 504 0
DWIDTH 23 0
BBX 20 15 1 -1
BITMAP
039e00
f7de00
f3de00
f3de00
f3de00
f3fe00
fe1e00
703c00
003c00
003c00
003c00
003ce0
003de0
003fe0
0000f0
ENDCHAR
STARTCHAR `sa/s2a
ENCODING  31300
SWIDTH 408 0
DWIDTH 18 0
BBX 15 15 1 -1
BITMAP
001e
f7de
f3ce
f3ce
f3de
f3fe
f73e
fc1e
003c
003c
003c
003c
003c
003c
0038
ENDCHAR
STARTCHAR `sE/s2E
ENCODING  31301
SWIDTH 480 0
DWIDTH 22 0
BBX 19 15 1 -1
BITMAP
009e00
f7de00
f3ce00
f3ce00
f3de00
f3fe00
ff3c00
fc1c00
003c00
003fc0
003fe0
0039e0
0039e0
003fc0
003300
ENDCHAR
STARTCHAR `s/s2
ENCODING  31302
SWIDTH 528 0
DWIDTH 24 0
BBX 21 14 1 0
BITMAP
000278
079e78
079e78
079e78
079e70
0f1fe0
1ff800
1ee000
3c0000
780000
780000
f00000
f00000
f00000
ENDCHAR
STARTCHAR `so/s2o
ENCODING  31303
SWIDTH 408 0
DWIDTH 19 0
BBX 16 15 1 0
BITMAP
000f
f3cf
f3cf
f3cf
f3cf
f7ce
fff8
ff00
0f00
1e00
1c00
3c00
7800
7800
7800
ENDCHAR
STARTCHAR `sWa/s2Wa
ENCODING  31304
SWIDTH 408 0
DWIDTH 22 0
BBX 19 18 1 -4
BITMAP
001e00
f7de00
f3ce00
f3ce00
f3de00
f3fe00
f73e00
fc1e00
003c00
003c00
003c00
003c00
003c00
003800
03ffc0
07c3c0
0781c0
0700e0
ENDCHAR
STARTCHAR re
ENCODING  31305
SWIDTH 336 0
DWIDTH 15 0
BBX 12 16 0 -1
BITMAP
01e0
01e0
01e0
03c0
0380
0780
0f00
1e00
3800
7000
f000
f0e0
f1e0
ffe0
7ff0
00c0
ENDCHAR
STARTCHAR ru
ENCODING  31306
SWIDTH 384 0
DWIDTH 17 0
BBX 14 17 0 -1
BITMAP
0f00
0f00
0f00
0e00
1e00
3c00
7800
7000
f000
f07c
fffc
3fbc
071c
0700
0f00
0f80
0600
ENDCHAR
STARTCHAR ri
ENCODING  31307
SWIDTH 312 0
DWIDTH 15 0
BBX 12 15 0 0
BITMAP
01e0
01e0
01e0
03c0
0380
0780
0f00
1e00
3800
70f0
f1f0
f0f0
f1e0
7f80
7c00
ENDCHAR
STARTCHAR ra
ENCODING  31308
SWIDTH 408 0
DWIDTH 19 0
BBX 16 15 0 0
BITMAP
01e0
01e0
01c0
03c0
0380
0780
0f00
1e00
3c7e
78fe
f19e
f38f
f380
ff80
7c00
ENDCHAR
STARTCHAR rE
ENCODING  31309
SWIDTH 384 0
DWIDTH 18 0
BBX 15 15 0 0
BITMAP
01e0
01e0
01e0
03c0
0380
0780
0f00
1e00
381c
70fe
f39e
f39e
f3de
7ff8
7dc0
ENDCHAR
STARTCHAR r
ENCODING  31310
SWIDTH 336 0
DWIDTH 16 0
BBX 13 15 0 0
BITMAP
07f0
1ff0
38f0
7870
7000
7000
f000
f000
f000
f000
f020
f0f0
f0f0
7ff0
3878
ENDCHAR
STARTCHAR ro
ENCODING  31311
SWIDTH 384 0
DWIDTH 17 0
BBX 14 15 0 0
BITMAP
01f8
1fdc
3bdc
73dc
71dc
f1f0
f000
f000
f000
f000
f020
f0e0
f1e0
7ff0
38f0
ENDCHAR
STARTCHAR rWa
ENCODING  31312
SWIDTH 408 0
DWIDTH 19 0
BBX 16 17 0 0
BITMAP
380f
3c0f
3fff
3ff8
01c0
03c0
0380
0700
0e00
1c00
387e
71fe
f39e
f38e
f380
ff80
7c00
ENDCHAR
STARTCHAR se
ENCODING  31313
SWIDTH 312 0
DWIDTH 15 0
BBX 12 16 0 0
BITMAP
0f00
0f00
0f00
1fc0
39e0
71e0
f1e0
f1e0
f1e0
f1e0
f1e0
f1e0
f1e0
f1e0
f1f0
71f0
ENDCHAR
STARTCHAR su
ENCODING  31314
SWIDTH 456 0
DWIDTH 20 0
BBX 17 16 0 0
BITMAP
0f0000
0f0000
0f0000
1fc000
39e000
71e100
f1e700
f1ef00
f1ff80
f1e780
f1e000
f1e000
f1e000
f1e000
f1e000
71e000
ENDCHAR
STARTCHAR si
ENCODING  31315
SWIDTH 456 0
DWIDTH 20 0
BBX 17 17 0 -1
BITMAP
0f0000
0f0000
0f0000
1fc000
39e000
71e000
f1e000
f1e000
f1e000
f1e000
f1e000
f1e000
f1e000
f1e780
f1ff80
71ff80
000780
ENDCHAR
STARTCHAR sa
ENCODING  31316
SWIDTH 312 0
DWIDTH 14 0
BBX 11 16 1 0
BITMAP
0e00
1e00
1e00
3f80
73c0
71e0
f1e0
f1e0
f1e0
f1e0
f1e0
e1e0
01e0
01e0
01e0
01e0
ENDCHAR
STARTCHAR sE
ENCODING  31317
SWIDTH 408 0
DWIDTH 19 0
BBX 16 16 0 0
BITMAP
0f00
0f00
0f00
1fc0
39c0
71e0
f1e0
f1e0
f1e0
f1e0
f1e4
f1ff
f1e7
f1e7
f1ef
71fc
ENDCHAR
STARTCHAR s
ENCODING  31318
SWIDTH 312 0
DWIDTH 14 0
BBX 11 16 0 0
BITMAP
1e00
1e00
1f00
1fc0
39e0
71e0
f1e0
f1e0
f1e0
f1e0
f1e0
f1e0
f1e0
f1e0
f1e0
71e0
ENDCHAR
STARTCHAR so
ENCODING  31319
SWIDTH 312 0
DWIDTH 14 0
BBX 11 16 0 0
BITMAP
0f00
0f00
0f00
1fc0
39c0
71e0
f1e0
f1e0
f1e0
f1e0
f1e0
f080
f000
f000
f000
7000
ENDCHAR
STARTCHAR sWa
ENCODING  31320
SWIDTH 432 0
DWIDTH 19 0
BBX 16 19 1 -3
BITMAP
0f00
1f00
1f00
3f80
73c0
f1e0
f1e0
f1e0
f1e0
f1e0
f1e0
e1e0
01e0
01e0
01ee
3fff
3c0f
3807
1000
ENDCHAR
STARTCHAR xe
ENCODING  31321
SWIDTH 408 0
DWIDTH 18 0
BBX 15 18 1 0
BITMAP
001c
703c
7ffc
7f9e
f780
07e0
1ce0
1cf0
3cf0
3cf0
3cf0
78f0
78f0
7cf0
7cf0
7cf0
3cf0
3cf0
ENDCHAR
STARTCHAR xu
ENCODING  31322
SWIDTH 480 0
DWIDTH 21 0
BBX 18 18 1 -1
BITMAP
001c00
f03c00
7ffc00
7f9e00
e78000
0fe000
1ce000
3cf380
3cf780
3cff80
78f7c0
78f000
78f000
7cf000
7cf000
3cf000
3cf000
104000
ENDCHAR
STARTCHAR xi
ENCODING  31323
SWIDTH 480 0
DWIDTH 21 0
BBX 18 19 1 -1
BITMAP
001c00
f03c00
7ffc00
7f9e00
f78000
07e000
1ce000
1cf000
3cf000
3cf000
3cf000
78f000
78f000
7cf000
7cf000
7cf380
3cff80
3cff80
0003c0
ENDCHAR
STARTCHAR xa
ENCODING  31324
SWIDTH 408 0
DWIDTH 18 0
BBX 15 18 1 0
BITMAP
001c
e03c
fffc
ffbe
e780
0fc0
1de0
39e0
79e0
79e0
79e0
79e0
79e0
39e0
01e0
01e0
01f0
00e0
ENDCHAR
STARTCHAR xE
ENCODING  31325
SWIDTH 456 0
DWIDTH 20 0
BBX 17 18 1 0
BITMAP
001c00
703c00
7ffc00
7f9e00
f78000
07c000
1ce000
1ce000
3cf000
3cf000
3cf000
78f000
78f600
7cff80
7cf780
7cf780
3cf780
3cfe00
ENDCHAR
STARTCHAR x
ENCODING  31326
SWIDTH 408 0
DWIDTH 18 0
BBX 15 18 0 0
BITMAP
001c
f03c
fffc
ffbe
e380
07e0
0ef0
1cf0
1cf0
3cf0
3cf0
3cf0
3cf0
3cf0
3cf0
3cf0
3cf0
1c70
ENDCHAR
STARTCHAR xo
ENCODING  31327
SWIDTH 408 0
DWIDTH 18 0
BBX 15 18 1 -1
BITMAP
001c
f03c
7ffc
779e
6780
0fe0
1cf0
3cf0
3cf0
3cf0
78f0
78f0
78f0
7c00
7c00
7c00
3c00
1000
ENDCHAR
STARTCHAR xWa
ENCODING  31328
SWIDTH 432 0
DWIDTH 20 0
BBX 17 21 0 -3
BITMAP
e03c00
f03800
fff800
7fe000
078000
07c000
1fe000
3de000
38f000
78f000
78f000
79f000
79e000
79e000
01e000
01e000
00f000
0fff00
0e0700
1e0780
180300
ENDCHAR
STARTCHAR qe
ENCODING  31329
SWIDTH 384 0
DWIDTH 17 0
BBX 14 17 0 -1
BITMAP
0380
0780
0380
0380
07f0
1ffc
77bc
77bc
f7b8
f7f8
ffc0
6780
0780
0780
0780
0780
0600
ENDCHAR
STARTCHAR qu
ENCODING  31330
SWIDTH 384 0
DWIDTH 18 0
BBX 15 17 0 -1
BITMAP
0380
0780
0380
0380
07f0
1ffc
37bc
77bc
f7b8
f7f8
ffc8
67bc
07fc
07fe
0798
0780
0600
ENDCHAR
STARTCHAR qi
ENCODING  31331
SWIDTH 384 0
DWIDTH 18 0
BBX 15 18 0 -2
BITMAP
0380
0780
0380
0380
07b0
0ffc
3fbc
77bc
f7bc
f7f8
ffe0
6780
0780
078c
07bc
07fc
043e
001e
ENDCHAR
STARTCHAR qa
ENCODING  31332
SWIDTH 432 0
DWIDTH 20 0
BBX 17 17 1 -1
BITMAP
00f000
00f000
00f000
00fe00
03ff80
0ef780
1ce780
1ce700
1cfe00
1fe000
01e000
01e000
01c000
7f0000
f00000
f00000
e00000
ENDCHAR
STARTCHAR qE
ENCODING  31333
SWIDTH 384 0
DWIDTH 17 0
BBX 14 17 0 -1
BITMAP
0380
0780
0380
0380
07f0
1ffc
37bc
77bc
f7b8
f7f8
ffc0
6780
07f8
07bc
079c
07f8
0400
ENDCHAR
STARTCHAR q
ENCODING  31334
SWIDTH 384 0
DWIDTH 17 0
BBX 14 18 2 0
BITMAP
7800
7800
7f80
7f80
0780
0780
07fc
3fbc
77bc
f7bc
f7b8
fff0
7f80
0780
0780
0f00
0f80
0700
ENDCHAR
STARTCHAR qo
ENCODING  31335
SWIDTH 384 0
DWIDTH 17 0
BBX 14 18 0 0
BITMAP
03e0
0670
0e70
0e70
0fe0
0780
07f8
1fbc
779c
f79c
f7b8
fff0
7f80
0780
0780
0780
0780
0600
ENDCHAR
STARTCHAR qWe
ENCODING  31337
SWIDTH 456 0
DWIDTH 21 0
BBX 18 17 0 -1
BITMAP
038000
078000
038000
038000
07f000
1ffc00
3fbc00
77bc00
f7bc00
f7f800
ffe000
67ffc0
07bbc0
07bbc0
07bfc0
079000
060000
ENDCHAR
STARTCHAR qWi
ENCODING  31339
SWIDTH 624 0
DWIDTH 28 0
BBX 25 17 0 -1
BITMAP
03c00000
07800000
03800000
03800000
07f0f000
1ff8f000
3fbcf000
77bfe000
f7bde700
f7f8ff00
ffe00700
67800780
07800000
07800000
07800000
07800000
06000000
ENDCHAR
STARTCHAR qWa
ENCODING  31340
SWIDTH 360 0
DWIDTH 17 0
BBX 14 19 0 -2
BITMAP
0380
0780
0380
03f8
1fbc
77bc
f7bc
f7b8
fff0
ff80
0780
0780
7ff0
7878
7878
f078
0078
0078
0070
ENDCHAR
STARTCHAR qWE
ENCODING  31341
SWIDTH 408 0
DWIDTH 19 0
BBX 16 19 0 -2
BITMAP
01e0
01e0
01e0
01fe
0fef
1def
3def
3dee
3ffc
1fe0
01fc
01fe
01cf
01ce
03fe
7f00
7800
f000
e000
ENDCHAR
STARTCHAR qWu/qW
ENCODING  31342
SWIDTH 600 0
DWIDTH 26 0
BBX 23 17 0 -1
BITMAP
03c000
07c000
038000
0380f0
07f0e0
1ffce0
77bde0
77bffc
f7bc1e
f7f81e
ffe00e
678000
078000
078000
078000
078000
060000
ENDCHAR
STARTCHAR Qe
ENCODING  31345
SWIDTH 384 0
DWIDTH 18 0
BBX 15 19 0 -1
BITMAP
001c
783c
7ffc
7b9e
7380
0380
07f8
1ffc
77bc
77bc
f7b8
f7f8
ffc0
6780
0780
0780
0780
0780
0600
ENDCHAR
STARTCHAR Qu
ENCODING  31346
SWIDTH 384 0
DWIDTH 18 0
BBX 15 19 0 -1
BITMAP
001c
783c
7ffc
7b9e
7380
0380
07f0
1ffc
37bc
77bc
f7b8
f7f8
ffc8
67bc
07fc
07fe
0798
0780
0600
ENDCHAR
STARTCHAR Qi
ENCODING  31347
SWIDTH 384 0
DWIDTH 18 0
BBX 15 20 0 -2
BITMAP
001c
783c
7ffc
7b9e
7380
0380
07b0
0ffc
3fbc
77bc
f7bc
f7f8
ffe0
6780
0780
078c
07bc
07fc
043e
001e
ENDCHAR
STARTCHAR Qa
ENCODING  31348
SWIDTH 432 0
DWIDTH 20 0
BBX 17 21 1 -3
BITMAP
000700
1e0f00
0fff00
0ff780
1ef000
00f000
00fe00
03ff00
0ef780
1ce700
1ce700
1cfe00
1fe000
01e000
01e000
01c000
7f0000
f00000
f00000
e00000
000000
ENDCHAR
STARTCHAR QE
ENCODING  31349
SWIDTH 384 0
DWIDTH 18 0
BBX 15 19 0 -1
BITMAP
001c
783c
7ffc
7b9e
7380
0380
07f0
1ffc
37bc
77bc
f7b8
f7f8
ffc0
6780
07f8
07bc
079c
07f8
0400
ENDCHAR
STARTCHAR Q
ENCODING  31350
SWIDTH 456 0
DWIDTH 20 0
BBX 17 21 1 -1
BITMAP
003800
f07800
7ff800
ffbc00
e78000
07f800
077800
007800
007f00
03ff80
077380
0e7380
1ef380
1eff00
0ffc00
04f000
00f000
00f000
00f000
00f000
004000
ENDCHAR
STARTCHAR Qo
ENCODING  31351
SWIDTH 432 0
DWIDTH 19 0
BBX 16 20 1 0
BITMAP
600f
f03f
7fff
f7e7
ce70
0e70
0ee0
07c0
07f0
0ffc
3fbc
77bc
f7b8
f7f8
ffc0
6780
0780
0780
0780
0780
ENDCHAR
STARTCHAR QWe
ENCODING  31353
SWIDTH 456 0
DWIDTH 21 0
BBX 18 18 0 0
BITMAP
001c00
783c00
7ffc00
7b9c00
738000
038000
07f800
3fbc00
77bc00
f7bc00
f7b800
fff000
7fbf80
07fbc0
07bbc0
07bbc0
079f80
078000
ENDCHAR
STARTCHAR QWi
ENCODING  31355
SWIDTH 624 0
DWIDTH 28 0
BBX 25 18 0 0
BITMAP
001c0000
783c0000
7ffc0000
7b9c0000
73800000
03802000
07f8f000
3fbcf000
77bff000
f7bfe000
f7bcff00
fff00f00
7f800780
07800380
07800000
07800000
07800000
07800000
ENDCHAR
STARTCHAR QWa
ENCODING  31356
SWIDTH 384 0
DWIDTH 18 0
BBX 15 21 0 -2
BITMAP
001c
783c
7ffc
7bbe
7780
07f8
3fbc
77bc
f7bc
f7b8
fff0
ff80
0780
0780
7ff0
7870
7878
f078
0078
0078
0060
ENDCHAR
STARTCHAR QWE
ENCODING  31357
SWIDTH 432 0
DWIDTH 19 0
BBX 16 22 0 -3
BITMAP
0007
1c0f
1fff
1fef
1de0
01fc
07fe
1def
3def
3dee
3dfc
3ff0
19e0
01fe
01ce
03ce
03ce
3ffc
7800
7000
e000
4000
ENDCHAR
STARTCHAR QWu/QW
ENCODING  31358
SWIDTH 600 0
DWIDTH 26 0
BBX 23 18 0 0
BITMAP
001c00
783c00
7ffc00
7b9c00
738060
0381f0
0ff8e0
3fbce0
77bfe0
f7bf9e
f7bc1e
fff00e
7f8004
078000
078000
078000
078000
078000
ENDCHAR
STARTCHAR be
ENCODING  31523
SWIDTH 312 0
DWIDTH 14 0
BBX 11 16 1 -1
BITMAP
1f80
33c0
71c0
f1e0
f1e0
f1e0
f1e0
f1e0
f3c0
f3c0
f3c0
f3c0
f3c0
f3e0
f1e0
4180
ENDCHAR
STARTCHAR bu
ENCODING  31524
SWIDTH 456 0
DWIDTH 20 0
BBX 17 16 1 -1
BITMAP
1f8000
33c000
71e000
f1e200
f1ef00
f1ef00
f1ff00
f1e780
f1e000
f1e000
f1e000
f1e000
f1e000
f1e000
f1e000
418000
ENDCHAR
STARTCHAR bi
ENCODING  31525
SWIDTH 432 0
DWIDTH 20 0
BBX 17 17 1 -2
BITMAP
1f8000
33c000
71c000
f1e000
f1e000
f1e000
f1e000
f1e000
f1e000
f1e000
f1e000
f1e000
f1e300
f1ef00
f1ff00
410f80
000780
ENDCHAR
STARTCHAR ba
ENCODING  31526
SWIDTH 288 0
DWIDTH 14 0
BBX 11 16 0 -1
BITMAP
1f80
33c0
71e0
f1e0
f1e0
f1e0
f1e0
f1e0
f1e0
f1e0
f1e0
41e0
01e0
01e0
01e0
0180
ENDCHAR
STARTCHAR bE
ENCODING  31527
SWIDTH 408 0
DWIDTH 19 0
BBX 16 16 1 -1
BITMAP
1f80
33c0
71c0
f1e0
f1e0
f1e0
f1e0
f1e0
f1e0
f1e0
f1fe
f1ff
f1cf
f1ef
f1fe
4100
ENDCHAR
STARTCHAR b
ENCODING  31528
SWIDTH 432 0
DWIDTH 19 0
BBX 16 15 0 0
BITMAP
00fc
01ce
038f
078f
078f
7f8f
f78f
e78f
c78f
078f
078f
078f
078f
078f
078f
ENDCHAR
STARTCHAR bo
ENCODING  31529
SWIDTH 312 0
DWIDTH 14 0
BBX 11 16 1 -1
BITMAP
1f80
33c0
73c0
f3c0
f3c0
f3c0
f3c0
f3c0
f3c0
f3e0
f3e0
f000
f000
f000
f000
4000
ENDCHAR
STARTCHAR bWa
ENCODING  31530
SWIDTH 408 0
DWIDTH 18 0
BBX 15 18 1 -3
BITMAP
1f80
33c0
73c0
f3c0
f3e0
f3e0
f3e0
f3e0
f3e0
f3c0
f3c0
43c0
03c0
03c0
1ffe
3c1e
380e
3006
ENDCHAR
STARTCHAR ve
ENCODING  31531
SWIDTH 360 0
DWIDTH 17 0
BBX 14 18 0 0
BITMAP
0038
f078
fff8
f03c
e3c0
0fe0
1ce0
38f0
38f0
78f0
78f0
78f0
78f0
78f0
78f0
78f0
7cf0
3cf0
ENDCHAR
STARTCHAR vu
ENCODING  31532
SWIDTH 456 0
DWIDTH 20 0
BBX 17 19 0 -1
BITMAP
003800
f07800
7ff800
703800
e38000
0fe000
1cf000
38f000
38f380
78f780
78ff80
78f380
78f000
78f000
78f000
78f000
78f000
7cf000
304000
ENDCHAR
STARTCHAR vi
ENCODING  31533
SWIDTH 432 0
DWIDTH 20 0
BBX 17 19 1 -1
BITMAP
003800
f07800
fff800
f03800
e38000
1fc000
39e000
39e000
79e000
79e000
79e000
79e000
79e000
79e000
79e000
79e300
79e700
38ff00
000780
ENDCHAR
STARTCHAR va
ENCODING  31534
SWIDTH 360 0
DWIDTH 17 0
BBX 14 19 1 -1
BITMAP
0038
f078
fff8
f03c
e780
1fe0
38e0
38f0
78f0
78f0
78f0
78f0
78f0
78f0
38e0
00e0
00f0
00f0
0000
ENDCHAR
STARTCHAR vE
ENCODING  31535
SWIDTH 456 0
DWIDTH 20 0
BBX 17 19 1 -1
BITMAP
003800
f07800
fff800
f03800
e78000
1fe000
38e000
78f000
78f000
f8f000
f8f000
f8f000
f8f000
f8f600
f8ff80
f8f380
f9f380
78ff00
000000
ENDCHAR
STARTCHAR v
ENCODING  31536
SWIDTH 432 0
DWIDTH 20 0
BBX 17 19 0 -1
BITMAP
000700
0e0f00
0fff80
0e0780
0c7800
01dc00
039e00
079e00
079e00
7f9e00
f79e00
e79e00
c79e00
079e00
079e00
079e00
079e00
079f00
070e00
ENDCHAR
STARTCHAR vo
ENCODING  31537
SWIDTH 360 0
DWIDTH 17 0
BBX 14 18 0 0
BITMAP
0038
f078
7ffc
f03c
e380
0fe0
1cf0
3cf0
3cf0
38f0
38f0
38f0
38f0
38f0
3800
3800
3c00
3c00
ENDCHAR
STARTCHAR vWa
ENCODING  31538
SWIDTH 408 0
DWIDTH 20 0
BBX 17 22 0 -2
BITMAP
003800
f07800
fff800
f03800
e38000
0fe000
18f000
38f000
78f000
78f000
78f000
78f000
78f000
78f000
78f000
38f000
00f000
00f000
07ff80
0fff80
0e0780
0c0380
ENDCHAR
STARTCHAR te
ENCODING  31539
SWIDTH 408 0
DWIDTH 19 0
BBX 16 15 0 0
BITMAP
03c0
03c0
03c0
03ce
0ffe
7f9e
738f
e384
c780
0780
0780
0780
0780
0780
0380
ENDCHAR
STARTCHAR tu
ENCODING  31540
SWIDTH 408 0
DWIDTH 18 0
BBX 15 15 0 0
BITMAP
03c0
03c0
03c0
03cc
1ffe
7f9e
738e
e784
c788
07bc
07fc
07bc
0788
0780
0380
ENDCHAR
STARTCHAR ti
ENCODING  31541
SWIDTH 408 0
DWIDTH 19 0
BBX 16 16 0 -1
BITMAP
03c0
03c0
03c0
03c6
0ffe
7fde
73cf
e386
c780
0780
0780
0784
079e
07fe
031e
000e
ENDCHAR
STARTCHAR ta
ENCODING  31542
SWIDTH 432 0
DWIDTH 19 0
BBX 16 17 1 -1
BITMAP
03c0
03e0
01e0
01e0
01ce
1fff
7fcf
7bc7
73c0
23c0
03c0
0380
0700
fe00
f000
e000
c000
ENDCHAR
STARTCHAR tE
ENCODING  31543
SWIDTH 408 0
DWIDTH 18 0
BBX 15 15 0 0
BITMAP
03c0
03c0
03c0
03cc
1ffe
7f9e
738e
e384
c780
07f8
07fc
079c
079c
07f8
03f0
ENDCHAR
STARTCHAR t
ENCODING  31544
SWIDTH 408 0
DWIDTH 19 0
BBX 16 18 0 0
BITMAP
3800
3c00
3c00
3fc0
03c0
03c0
03c6
0ffe
7fde
73cf
e386
c780
0780
0780
0780
0780
0780
0380
ENDCHAR
STARTCHAR to
ENCODING  31545
SWIDTH 408 0
DWIDTH 19 0
BBX 16 17 0 0
BITMAP
03f0
0770
0f78
0f70
07e0
03c0
03fe
7ffe
73ce
73c7
e780
0780
0780
0780
0780
0780
0380
ENDCHAR
STARTCHAR tWa
ENCODING  31546
SWIDTH 408 0
DWIDTH 18 0
BBX 15 17 1 -3
BITMAP
0780
0780
0780
07bc
7ffc
f79c
e78e
e780
8780
0780
0780
0780
07f0
7ff8
f078
f038
e010
ENDCHAR
STARTCHAR ce
ENCODING  31547
SWIDTH 408 0
DWIDTH 18 0
BBX 15 17 0 0
BITMAP
001e
781e
7ffe
7bce
73c0
03c0
03fe
7fde
f79e
f78e
e780
0780
0780
0780
0780
0780
0780
ENDCHAR
STARTCHAR cu
ENCODING  31548
SWIDTH 408 0
DWIDTH 18 0
BBX 15 17 0 0
BITMAP
001e
701e
7ffe
7fde
73c0
0380
03fe
7ffe
f79e
f78e
e780
07bc
07fc
07fc
079c
0780
0780
ENDCHAR
STARTCHAR ci
ENCODING  31549
SWIDTH 408 0
DWIDTH 18 0
BBX 15 19 0 -2
BITMAP
000e
781e
7ffe
7fde
73c0
03c0
03fe
7ffe
f79e
f78e
e780
0780
0780
0780
078c
079c
07fc
001e
0008
ENDCHAR
STARTCHAR ca
ENCODING  31550
SWIDTH 456 0
DWIDTH 20 0
BBX 17 19 1 -1
BITMAP
000700
3c0f00
3fff00
3fe700
39e000
01e000
01e700
0fff00
3fef00
39c780
71c200
21c000
03c000
038000
030000
7e0000
f00000
e00000
c00000
ENDCHAR
STARTCHAR cE
ENCODING  31551
SWIDTH 408 0
DWIDTH 18 0
BBX 15 17 0 0
BITMAP
001e
783e
7ffe
7bde
7380
0380
03fe
7f9e
f79e
f78e
e780
0780
07f8
079c
079c
079c
07f8
ENDCHAR
STARTCHAR c
ENCODING  31552
SWIDTH 480 0
DWIDTH 21 0
BBX 18 20 0 0
BITMAP
e00800
f03c00
f1fc00
fffc00
079c00
07f000
07f800
00f800
00f180
03ff80
1ff380
1ef3c0
1cf080
18f000
00f000
00f000
00f000
00f000
00f000
00e000
ENDCHAR
STARTCHAR co
ENCODING  31553
SWIDTH 408 0
DWIDTH 19 0
BBX 16 21 0 0
BITMAP
101c
781c
3c1c
3c78
3ff0
0670
0e70
0f60
07c0
03ce
1ffe
ff9e
f78f
e784
c780
0780
0780
0780
0780
0780
0380
ENDCHAR
STARTCHAR cWa
ENCODING  31554
SWIDTH 408 0
DWIDTH 18 0
BBX 15 18 0 -2
BITMAP
1ffe
7fde
7bde
73ce
03c0
07fe
7fde
f79e
f786
e780
0780
0780
0780
0ff8
7ff8
7038
7018
4000
ENDCHAR
STARTCHAR `he/h2e
ENCODING  31555
SWIDTH 360 0
DWIDTH 15 0
BBX 12 16 1 -1
BITMAP
03c0
07c0
0380
3f80
fff0
f3f0
e0f0
c0f0
00f0
00f0
01f0
01e0
01e0
01e0
01f0
0080
ENDCHAR
STARTCHAR `hu/h2u
ENCODING  31556
SWIDTH 456 0
DWIDTH 20 0
BBX 17 16 1 -1
BITMAP
078000
078000
078000
3f8000
fff000
e6f000
e0f000
c0ff80
00e780
00e380
01e180
01e000
01e000
01e000
01e000
008000
ENDCHAR
STARTCHAR `hi/h2i
ENCODING  31557
SWIDTH 456 0
DWIDTH 20 0
BBX 17 17 1 -2
BITMAP
078000
078000
078000
3f8000
fff800
f3f000
e0f000
c0f000
00f000
00f000
00f000
01e000
01e300
01e780
01ff80
008780
000380
ENDCHAR
STARTCHAR `ha/h2a
ENCODING  31558
SWIDTH 360 0
DWIDTH 16 0
BBX 13 17 1 -2
BITMAP
0380
03c0
03c0
3fc0
7bf8
7378
6078
4078
00f0
00f0
00e0
01e0
0780
fe00
f000
e000
c000
ENDCHAR
STARTCHAR `hE/h2E
ENCODING  31559
SWIDTH 432 0
DWIDTH 19 0
BBX 16 16 1 -1
BITMAP
0780
0780
0780
3f80
fff0
e3f0
e0f0
c0f0
00f0
00f0
01fe
01e7
01e7
01e7
01fe
0080
ENDCHAR
STARTCHAR `h/h2
ENCODING  31560
SWIDTH 336 0
DWIDTH 15 0
BBX 12 16 1 0
BITMAP
0700
0f80
0780
3f00
77f0
f7f0
f0f0
f1f0
e1e0
01e0
01e0
01e0
01e0
03e0
03e0
01c0
ENDCHAR
STARTCHAR `ho/h2o
ENCODING  31561
SWIDTH 528 0
DWIDTH 24 0
BBX 21 17 0 -1
BITMAP
007bf0
01ff78
01e778
03c778
03c7f0
7f8380
f78000
f78000
e7fe00
03fe00
001e00
003c00
003c00
003c00
003c00
003c00
003c00
ENDCHAR
STARTCHAR hWe
ENCODING  31563
SWIDTH 552 0
DWIDTH 24 0
BBX 21 16 1 -1
BITMAP
078000
078000
078000
7f8000
fff800
e7f800
e0fff0
80ff38
00f738
00f738
00f3f0
00f000
01f000
01f000
01f000
008000
ENDCHAR
STARTCHAR hWi
ENCODING  31565
SWIDTH 576 0
DWIDTH 26 0
BBX 23 16 1 -1
BITMAP
078000
078000
078000
7f80c0
fffbc0
e7fbc0
e0f3c0
80ff80
00f7fc
00f3fc
00f01c
00f00e
01e000
01e000
01f000
008000
ENDCHAR
STARTCHAR hWa
ENCODING  31566
SWIDTH 432 0
DWIDTH 19 0
BBX 16 18 1 -3
BITMAP
0780
0780
0780
7f80
fff8
e778
e0f0
80f0
00f0
00f0
00f0
0ffc
7e1e
3c0f
780f
700f
000f
000f
ENDCHAR
STARTCHAR hWE
ENCODING  31567
SWIDTH 408 0
DWIDTH 19 0
BBX 16 18 1 -3
BITMAP
0780
0780
0780
7f80
fff0
e6f0
e0f0
80f0
00e0
01ff
01e7
01e7
01e7
07fe
7e00
7c00
7800
7000
ENDCHAR
STARTCHAR hW
ENCODING  31568
SWIDTH 552 0
DWIDTH 25 0
BBX 22 16 0 -1
BITMAP
078000
078000
078000
3f8000
fffbc0
f37bc0
e0fbc0
c0ffc0
00fffc
00f078
00f03c
00f01c
00f000
00f000
01f000
00c000
ENDCHAR
STARTCHAR ne
ENCODING  31571
SWIDTH 264 0
DWIDTH 12 0
BBX 9 16 1 0
BITMAP
f000
f000
f000
f000
f000
ff80
4f80
0f00
0f00
1e00
1e00
1c00
3c00
3c00
3c00
3800
ENDCHAR
STARTCHAR nu
ENCODING  31572
SWIDTH 288 0
DWIDTH 14 0
BBX 11 15 1 0
BITMAP
f000
f000
f000
f000
fc00
fe00
1e00
3fe0
3fc0
79e0
78e0
f000
f000
f000
f000
ENDCHAR
STARTCHAR ni
ENCODING  31573
SWIDTH 288 0
DWIDTH 14 0
BBX 11 16 0 -1
BITMAP
f000
f800
7000
f000
fe00
4f00
0f00
1e00
1e00
1c00
3c00
3800
79e0
7fc0
7fe0
01e0
ENDCHAR
STARTCHAR na
ENCODING  31574
SWIDTH 312 0
DWIDTH 15 0
BBX 12 16 0 -1
BITMAP
1fe0
79e0
71f0
f0f0
f000
f000
f000
ff80
7f80
0780
0780
0780
0780
0780
0780
0700
ENDCHAR
STARTCHAR nE
ENCODING  31575
SWIDTH 264 0
DWIDTH 13 0
BBX 10 15 0 0
BITMAP
f000
f800
7000
f000
fe00
4f00
0f00
1e00
1e00
1d00
3fc0
39c0
79c0
7fc0
7f00
ENDCHAR
STARTCHAR n
ENCODING  31576
SWIDTH 312 0
DWIDTH 15 0
BBX 12 16 0 -1
BITMAP
7f80
f380
7780
e780
0780
07f0
00f0
01e0
01e0
03c0
03c0
0780
0780
0780
0f80
0400
ENDCHAR
STARTCHAR no
ENCODING  31577
SWIDTH 384 0
DWIDTH 18 0
BBX 15 17 1 -1
BITMAP
04fc
3fde
79de
71de
f1fe
f0e0
f000
f000
ff80
7f80
0780
0780
0780
0780
0780
0780
0700
ENDCHAR
STARTCHAR nWa
ENCODING  31578
SWIDTH 336 0
DWIDTH 16 0
BBX 13 18 0 -3
BITMAP
1fe0
7de0
70e0
f070
f000
f000
f000
ff80
7f80
0780
0780
0780
0780
0790
7ff8
7078
7038
4010
ENDCHAR
STARTCHAR Ne
ENCODING  31579
SWIDTH 384 0
DWIDTH 18 0
BBX 15 18 0 -1
BITMAP
0018
f03c
fffc
fffe
f798
6780
0700
07e0
04f0
00e0
01e0
01e0
03c0
03c0
0780
0780
0780
0200
ENDCHAR
STARTCHAR Nu
ENCODING  31580
SWIDTH 408 0
DWIDTH 18 0
BBX 15 18 0 -1
BITMAP
001c
f03c
fffc
ffbc
e798
4700
0700
07e0
01e0
01e4
03fe
03de
038e
0786
0780
0f80
0f80
0400
ENDCHAR
STARTCHAR Ni
ENCODING  31581
SWIDTH 384 0
DWIDTH 18 0
BBX 15 19 0 -2
BITMAP
001c
f03c
fffc
7fbe
f798
4780
0700
07f0
00f0
00e0
01e0
01c0
03c0
03c0
078e
079c
07fc
021e
000e
ENDCHAR
STARTCHAR Na
ENCODING  31582
SWIDTH 384 0
DWIDTH 17 0
BBX 14 19 1 -1
BITMAP
0038
f078
fff8
f73c
e730
3ff0
7070
f078
f000
f000
f000
ff80
0780
0780
0780
0780
0780
0780
0700
ENDCHAR
STARTCHAR NE
ENCODING  31583
SWIDTH 384 0
DWIDTH 18 0
BBX 15 18 0 -1
BITMAP
001c
f03c
fffc
ffbe
e798
4700
0700
07f0
00f0
00f0
01e0
01e0
03f8
03dc
079c
079c
07f8
0000
ENDCHAR
STARTCHAR N
ENCODING  31584
SWIDTH 360 0
DWIDTH 16 0
BBX 13 21 0 -1
BITMAP
e038
f078
f078
fff8
0700
0780
ff80
f780
e700
e700
07e0
01e0
01e0
03c0
03c0
0380
0780
0780
0f00
0f80
0400
ENDCHAR
STARTCHAR No
ENCODING  31585
SWIDTH 432 0
DWIDTH 20 0
BBX 17 20 0 -1
BITMAP
001c00
f03c00
7ffc00
7f9e00
f38000
0fff00
1ff380
387380
787380
787f80
783e00
780000
7fc000
03c000
03c000
03c000
03c000
03c000
07c000
038000
ENDCHAR
STARTCHAR NWa
ENCODING  31586
SWIDTH 384 0
DWIDTH 17 0
BBX 14 22 1 -3
BITMAP
603c
7038
7ff8
7ff8
0700
1ff0
78f0
7070
f030
f000
f000
ff80
7f80
0780
0780
0780
0780
07f0
7ff8
7078
e038
4000
ENDCHAR
STARTCHAR e/a
ENCODING  31587
SWIDTH 360 0
DWIDTH 15 0
BBX 12 17 1 -1
BITMAP
3800
7c00
3c00
3c00
3f00
3f00
1e00
1fc0
3fe0
78e0
78e0
f0f0
f0f0
f0f0
f0f0
f0f0
4040
ENDCHAR
STARTCHAR u/U
ENCODING  31588
SWIDTH 456 0
DWIDTH 20 0
BBX 17 17 1 -1
BITMAP
380000
780000
3c0000
3c0000
3f0000
3f0000
1e0000
1fc000
3fe000
78e000
78ff80
f0ff00
f0f780
f0f380
f0f000
f0f000
404000
ENDCHAR
STARTCHAR i
ENCODING  31589
SWIDTH 480 0
DWIDTH 21 0
BBX 18 18 1 -2
BITMAP
380000
7c0000
3c0000
3c0000
3f0000
3f0000
1e0000
1fc000
3fe000
78e000
78e000
f0f000
f0f000
f0f1c0
f0f380
f0ff80
4047c0
0003c0
ENDCHAR
STARTCHAR a/A
ENCODING  31590
SWIDTH 336 0
DWIDTH 15 0
BBX 12 17 1 -1
BITMAP
3800
7c00
3c00
3c00
3f00
3e00
1e00
3fc0
7bc0
71e0
f1e0
f1e0
f1e0
01e0
01f0
01f0
0000
ENDCHAR
STARTCHAR E
ENCODING  31591
SWIDTH 432 0
DWIDTH 20 0
BBX 17 17 1 -1
BITMAP
3c0000
3c0000
3c0000
3c0000
3f0000
1f0000
1e0000
1fc000
3fe000
78e000
78e000
f0f600
f0ff80
f0f780
f0f380
f0ff00
400000
ENDCHAR
STARTCHAR I
ENCODING  31592
SWIDTH 336 0
DWIDTH 15 0
BBX 12 17 1 -1
BITMAP
7800
7800
7e00
7e00
1c00
1f00
1e00
1c80
3fc0
79e0
78e0
f0e0
f0e0
f0e0
f0f0
f0f0
40c0
ENDCHAR
STARTCHAR o/O
ENCODING  31593
SWIDTH 336 0
DWIDTH 15 0
BBX 12 17 1 -1
BITMAP
7800
7800
7800
7800
7e00
3e00
1e00
1fc0
3fe0
78e0
78e0
f0e0
f0f0
f0f0
f000
f000
4000
ENDCHAR
STARTCHAR e3
ENCODING  31594
SWIDTH 408 0
DWIDTH 18 0
BBX 15 18 1 0
BITMAP
0038
f078
fff8
f7b8
e780
0780
07e0
01e0
03c0
03fc
071c
0f1e
0f1e
1e1e
1e1e
1e1e
1e1e
1e1e
ENDCHAR
STARTCHAR ke
ENCODING  31595
SWIDTH 360 0
DWIDTH 16 0
BBX 13 17 0 -1
BITMAP
f000
f000
f000
f7e0
fe70
7c78
1c78
3c78
3c78
3c78
3c78
3c78
3c78
3c78
3c78
3c78
1020
ENDCHAR
STARTCHAR ku
ENCODING  31596
SWIDTH 504 0
DWIDTH 22 0
BBX 19 17 0 -1
BITMAP
f00000
f00000
f00000
f7e000
fe7000
7c7800
1c79c0
3c7bc0
3c7fc0
3c7fe0
3c7980
3c7800
3c7800
3c7800
3c7800
3c7800
102000
ENDCHAR
STARTCHAR ki
ENCODING  31597
SWIDTH 504 0
DWIDTH 22 0
BBX 19 18 0 -2
BITMAP
f00000
f00000
f00000
f3e000
fe7000
fc7800
1c7800
3c7800
3c7800
3c7800
3c7800
3c7800
3c7800
3c78e0
3c79c0
3c7fc0
1021e0
0000e0
ENDCHAR
STARTCHAR ka
ENCODING  31598
SWIDTH 360 0
DWIDTH 16 0
BBX 13 17 1 -1
BITMAP
f000
f000
f000
f7e0
fef0
fc70
3c78
3878
7878
7878
78f8
78f8
7cf0
20f0
00f8
0078
0060
ENDCHAR
STARTCHAR kE
ENCODING  31599
SWIDTH 480 0
DWIDTH 21 0
BBX 18 17 1 -1
BITMAP
f00000
f00000
f00000
f7e000
fcf000
fcf000
3cf800
38f800
78f800
78f800
78f000
78ff80
78ffc0
78f3c0
78f3c0
3c7f80
304000
ENDCHAR
STARTCHAR k
ENCODING  31600
SWIDTH 360 0
DWIDTH 16 0
BBX 13 17 1 -1
BITMAP
f000
f000
f000
f7e0
fef0
fc78
3878
7c78
7c78
3878
78f8
78f8
70f0
f0f0
f0f0
f8f8
6060
ENDCHAR
STARTCHAR ko
ENCODING  31601
SWIDTH 360 0
DWIDTH 16 0
BBX 13 17 0 -1
BITMAP
f000
f000
f000
f7e0
fe70
fc78
1c78
3c78
3c78
3c78
3c78
3c78
3c00
3c00
3c00
3c00
1000
ENDCHAR
STARTCHAR kWe
ENCODING  31603
SWIDTH 528 0
DWIDTH 23 0
BBX 20 17 1 0
BITMAP
f00000
f00000
f00000
f38000
ffc000
f9e000
39e000
71e040
71fff0
f1ff70
f1ef70
f1e770
f1e7c0
f1e000
f1e000
f1f000
70e000
ENDCHAR
STARTCHAR kWi
ENCODING  31605
SWIDTH 576 0
DWIDTH 25 0
BBX 22 17 1 0
BITMAP
f00000
f00000
f00000
f38000
ffc000
f9e780
39e780
71e780
71ff80
f1f780
f1e7f8
f1e038
f1e03c
f1e000
f1e000
f1f000
70e000
ENDCHAR
STARTCHAR kWa
ENCODING  31606
SWIDTH 432 0
DWIDTH 19 0
BBX 16 19 1 -3
BITMAP
f000
f000
f000
f7c0
fde0
f8e0
70f0
f0f0
f0f0
f1f0
f9e0
61e0
0ffe
1e0e
1e0f
1c0f
000f
000f
000e
ENDCHAR
STARTCHAR kWE
ENCODING  31607
SWIDTH 432 0
DWIDTH 20 0
BBX 17 19 0 -3
BITMAP
f00000
f00000
f00000
f7c000
fce000
78f000
38f000
78f000
78f000
78f000
78ff00
78ff80
60e780
00f780
00ff00
0ffc00
0f0000
1e0000
1c0000
ENDCHAR
STARTCHAR kWu/kW
ENCODING  31608
SWIDTH 528 0
DWIDTH 24 0
BBX 21 17 1 0
BITMAP
f00000
f00000
f00000
f38000
ffe000
f9e780
39e780
71e780
71ff00
f1fff0
f1e0f0
f1e078
f1e038
f1e000
f1e000
f1f000
70e000
ENDCHAR
STARTCHAR Ke
ENCODING  31611
SWIDTH 456 0
DWIDTH 21 0
BBX 18 19 0 -1
BITMAP
003800
f07800
7ff800
77bc00
678000
07bf00
07f780
07e3c0
01e3c0
01e3c0
01e3c0
01c7c0
03c7c0
03c780
03e780
03e780
01e7c0
01e7c0
008200
ENDCHAR
STARTCHAR Ku
ENCODING  31612
SWIDTH 576 0
DWIDTH 27 0
BBX 24 19 0 -1
BITMAP
003800
f07800
7ff800
77bc00
678000
07bf00
07f780
07e380
01e3ce
01e3de
01c3fe
03c7ff
03c7cc
03c7c0
03c780
03c780
03e780
01e3c0
018200
ENDCHAR
STARTCHAR Ki
ENCODING  31613
SWIDTH 576 0
DWIDTH 26 0
BBX 23 20 1 -2
BITMAP
003800
f07800
fff800
f73c00
e70000
073e00
07e700
07e780
01c780
03c780
03c780
03c780
03c780
03c780
03c780
03c78e
03c79c
03e7fc
01023e
00001e
ENDCHAR
STARTCHAR Ka
ENCODING  31614
SWIDTH 456 0
DWIDTH 21 0
BBX 18 19 0 -1
BITMAP
003800
f07800
7ff800
77bc00
678000
07bf00
07f780
03e3c0
01e3c0
01e3c0
01e3c0
03c3c0
03c7c0
03e7c0
01e780
010780
0007c0
0003c0
000200
ENDCHAR
STARTCHAR KE
ENCODING  31777
SWIDTH 552 0
DWIDTH 25 0
BBX 22 19 0 -1
BITMAP
003800
f07800
7ff800
77bc00
e78000
07bf00
07e780
07e780
01e7c0
01c7c0
03c780
03c780
03c780
03c7f8
03c7fc
03c79c
03c79c
01e7f8
010200
ENDCHAR
STARTCHAR K
ENCODING  31778
SWIDTH 432 0
DWIDTH 20 0
BBX 17 19 0 -1
BITMAP
003800
f07800
7ff800
7fbc00
678000
07bf00
07e780
07c780
03c780
03c780
07c780
01c780
03c780
038780
078780
078780
078780
078780
070700
ENDCHAR
STARTCHAR Ko
ENCODING  31779
SWIDTH 456 0
DWIDTH 21 0
BBX 18 19 0 -1
BITMAP
003800
f07800
7ff800
7fbc00
678000
07bf00
07f780
07e3c0
01e3c0
01e3c0
01e380
01e380
01e7c0
01e3c0
01e000
01e000
01e000
01e000
008000
ENDCHAR
STARTCHAR KWe
ENCODING  31781
SWIDTH 528 0
DWIDTH 30 0
BBX 27 19 -5 -1
BITMAP
001c0000
f03c0000
7ffc0000
779c0000
67800000
07bf0000
07f38000
07e38000
01e3c000
01e3dfc0
01e3fde0
01c3dde0
03c3dde0
03c3dfc0
03e3c000
03e3c000
01e3c000
01e3c000
00810000
ENDCHAR
STARTCHAR KWi
ENCODING  31783
SWIDTH 576 0
DWIDTH 31 0
BBX 28 19 -5 -1
BITMAP
00180000
f0380000
7ff80000
77bc0000
67800000
07bf0000
07f79e00
07e39e00
01e3de00
01e3fe00
01c3fe00
03c7dfe0
03c7dfe0
03c7c0e0
03c78070
03c78000
03e78000
03e3c000
01020000
ENDCHAR
STARTCHAR KWa
ENCODING  31784
SWIDTH 432 0
DWIDTH 25 0
BBX 22 21 -5 -3
BITMAP
003800
f07800
7ff800
77bc00
678000
07bf00
07f780
03e380
01c3c0
01c3c0
03c3c0
03c7c0
03e780
018780
003ff8
007838
00783c
00703c
00003c
00003c
000038
ENDCHAR
STARTCHAR KWE
ENCODING  31785
SWIDTH 432 0
DWIDTH 25 0
BBX 22 21 -4 -3
BITMAP
001c00
f03c00
7ffc00
779c00
678000
07be00
07e700
03c780
01c780
03c780
038780
038780
03c7f8
03c7fc
01073c
0007bc
0007f8
007fe0
007800
00f000
00e000
ENDCHAR
STARTCHAR KWu/KW
ENCODING  31786
SWIDTH 528 0
DWIDTH 29 0
BBX 26 19 -4 -1
BITMAP
00700000
f0f00000
7ff00000
77780000
67000000
077e0000
07ef3c00
07c73c00
03c7bc00
03c7b800
0387ff80
078f8780
078f8780
078f83c0
078f0000
078f0000
07cf0000
03c78000
02040000
ENDCHAR
STARTCHAR we
ENCODING  31789
SWIDTH 384 0
DWIDTH 18 0
BBX 15 12 1 1
BITMAP
07f8
1fdc
739e
739e
f39e
f39e
e39c
e79c
e79c
e7f8
7fc0
3000
ENDCHAR
STARTCHAR wu
ENCODING  31790
SWIDTH 528 0
DWIDTH 23 0
BBX 20 12 1 1
BITMAP
07f800
1fdc00
73de00
739e00
f39e00
f39e00
f39e00
e39c40
e79de0
f7bfe0
7fffe0
3000f0
ENDCHAR
STARTCHAR wi
ENCODING  31791
SWIDTH 384 0
DWIDTH 17 0
BBX 14 16 0 -2
BITMAP
0ff0
3fb8
73bc
f7bc
f7bc
f7b8
f7b8
7fe0
3780
0780
0700
0708
0f3c
0ffc
073c
001c
ENDCHAR
STARTCHAR wa
ENCODING  31792
SWIDTH 360 0
DWIDTH 17 0
BBX 14 15 0 -1
BITMAP
0ff8
3fbc
739c
f39c
f7bc
f7b8
f7f8
7fe0
3780
0780
0780
0700
0f00
0f80
0700
ENDCHAR
STARTCHAR wE
ENCODING  31793
SWIDTH 360 0
DWIDTH 17 0
BBX 14 15 0 -1
BITMAP
0ff8
3fbc
739c
f39c
f7bc
f7bc
f7f8
7fe0
3780
07f0
07f8
0738
0f38
0ff8
0ff0
ENDCHAR
STARTCHAR w
ENCODING  31794
SWIDTH 528 0
DWIDTH 23 0
BBX 20 12 1 1
BITMAP
07f800
1ffc00
739e60
739ef0
f39ff0
e39ff0
e39c70
e79c00
e7bc00
e7f000
7fc000
300000
ENDCHAR
STARTCHAR wo
ENCODING  31795
SWIDTH 384 0
DWIDTH 18 0
BBX 15 15 1 0
BITMAP
0ffc
19de
39ce
7bce
7bde
7bde
7fdc
3ff0
0f00
1e00
3800
7000
f000
f000
f000
ENDCHAR
STARTCHAR `e/e2
ENCODING  31797
SWIDTH 312 0
DWIDTH 14 0
BBX 11 14 0 0
BITMAP
07c0
1fe0
38e0
70e0
70e0
f0e0
f1e0
f1e0
f1e0
f1c0
e1c0
e3c0
ff80
7000
ENDCHAR
STARTCHAR `u/u2
ENCODING  31798
SWIDTH 432 0
DWIDTH 20 0
BBX 17 14 0 0
BITMAP
0fe000
3fe000
38e000
78e000
70e700
f1ff00
f1ef00
f1e780
f1e000
e1c000
e3c000
e3c000
ff8000
700000
ENDCHAR
STARTCHAR `i/i2
ENCODING  31799
SWIDTH 408 0
DWIDTH 19 0
BBX 16 17 0 -2
BITMAP
1f00
7380
f380
f380
f380
f380
f7f0
7ef0
00e0
01e0
01e0
03c0
03c4
039e
07fe
031e
000f
ENDCHAR
STARTCHAR `a/A2
ENCODING  31800
SWIDTH 312 0
DWIDTH 15 0
BBX 12 16 0 -1
BITMAP
1f00
7380
f380
f380
f380
f380
f7f0
7ef0
00e0
01e0
01e0
03c0
03c0
03c0
07c0
0300
ENDCHAR
STARTCHAR `E/E2
ENCODING  31801
SWIDTH 384 0
DWIDTH 17 0
BBX 14 16 0 -1
BITMAP
3f00
7380
f380
f380
f380
f380
f7f0
7ef0
00e0
01e0
01f8
01fc
03cc
03cc
07f8
0330
ENDCHAR
STARTCHAR `I/I2
ENCODING  31802
SWIDTH 312 0
DWIDTH 14 0
BBX 11 16 0 0
BITMAP
0700
0f00
0f00
0f00
0fc0
19e0
31e0
71e0
f1e0
f1e0
f1e0
f1e0
f1e0
f3c0
f780
7e00
ENDCHAR
STARTCHAR `o/o2
ENCODING  31803
SWIDTH 312 0
DWIDTH 15 0
BBX 12 16 1 -1
BITMAP
07e0
1cf0
1cf0
3ce0
3ce0
3ce0
3dc0
1f00
1c00
3800
7800
7000
f000
f000
f000
e000
ENDCHAR
STARTCHAR ze
ENCODING  31805
SWIDTH 312 0
DWIDTH 14 0
BBX 11 15 0 -1
BITMAP
71e0
f9e0
79e0
79e0
79e0
ffe0
f9e0
f1e0
f1e0
f1c0
f3c0
f3c0
f3c0
f3c0
4000
ENDCHAR
STARTCHAR zu
ENCODING  31806
SWIDTH 432 0
DWIDTH 20 0
BBX 17 15 0 -1
BITMAP
71e000
f9e000
79e000
79e000
79e700
ffef00
f9ff00
f1ff80
f1e600
f1c000
f3c000
f3c000
f3c000
f3c000
400000
ENDCHAR
STARTCHAR zi
ENCODING  31807
SWIDTH 408 0
DWIDTH 19 0
BBX 16 16 0 -2
BITMAP
71e0
f9e0
79e0
79e0
71e0
ffe0
f9e0
f1e0
f1e0
f1c0
f3c0
f3c6
f3cf
f3ff
400f
0006
ENDCHAR
STARTCHAR za
ENCODING  31808
SWIDTH 312 0
DWIDTH 14 0
BBX 11 15 0 0
BITMAP
11e0
f3e0
f1e0
f1e0
f1c0
ffc0
ffc0
f3c0
f3c0
f3c0
f3c0
03c0
03c0
03c0
0380
ENDCHAR
STARTCHAR zE
ENCODING  31809
SWIDTH 384 0
DWIDTH 18 0
BBX 15 15 0 -1
BITMAP
71e0
f9e0
79e0
79e0
71e0
ffe0
f9e0
f1e0
f1e0
f1fe
f3ce
f3ce
f3ce
f3fc
4000
ENDCHAR
STARTCHAR z
ENCODING  31810
SWIDTH 432 0
DWIDTH 19 0
BBX 16 15 1 -1
BITMAP
030f
7f8f
f78f
f78f
e78f
07ff
07de
079e
079e
079e
079e
079e
079e
079e
0600
ENDCHAR
STARTCHAR zo
ENCODING  31811
SWIDTH 312 0
DWIDTH 14 0
BBX 11 15 0 -1
BITMAP
71e0
f9e0
79e0
79e0
79e0
ffe0
f9e0
f1e0
f1e0
f1e0
f100
f000
f000
f000
4000
ENDCHAR
STARTCHAR zWa
ENCODING  31812
SWIDTH 384 0
DWIDTH 18 0
BBX 15 17 0 -3
BITMAP
f3c0
f1e0
f1e0
f1c0
f3c0
ffc0
f3c0
f3c0
f3c0
f3c0
43c0
03c0
03c0
3ffc
381c
381e
2000
ENDCHAR
STARTCHAR Ze
ENCODING  31813
SWIDTH 504 0
DWIDTH 23 0
BBX 20 15 0 0
BITMAP
0403f0
ff0ff0
f71cf0
e79c70
c7bc00
07fc00
07fc00
073c00
0f3c00
0f3c00
0f3c00
0f3c00
0f3c00
0f3c00
0e3800
ENDCHAR
STARTCHAR Zu
ENCODING  31814
SWIDTH 504 0
DWIDTH 23 0
BBX 20 15 0 0
BITMAP
0603f0
7f0ff0
f79cf0
e79c70
c79c00
07fce0
07ffe0
073de0
073ce0
073c00
0f3c00
0f3c00
0f3c00
0f3c00
0f3c00
ENDCHAR
STARTCHAR Zi
ENCODING  31815
SWIDTH 528 0
DWIDTH 23 0
BBX 20 16 1 -2
BITMAP
0e07f0
ff0ff0
f79cf0
e7bc70
c7bc00
07fc00
07bc00
0f3c00
0f3c00
0f3800
0f3800
0f38e0
0f39e0
0f3fe0
0c21e0
0000e0
ENDCHAR
STARTCHAR Za
ENCODING  31816
SWIDTH 504 0
DWIDTH 23 0
BBX 20 15 0 0
BITMAP
0e07f0
ff0ef0
f79cf0
e79c70
c7bc00
07fc00
07fc00
073c00
0f3c00
0f3c00
0f3c00
003800
003800
003c00
003800
ENDCHAR
STARTCHAR ZE
ENCODING  31817
SWIDTH 504 0
DWIDTH 24 0
BBX 21 15 0 -1
BITMAP
1f07f0
f38ef0
739c78
e79c38
c79c00
07fc00
07dc00
079c00
079c00
073fc0
073ce0
0f3ce0
0f3ce0
0f3fc0
040000
ENDCHAR
STARTCHAR Z
ENCODING  31818
SWIDTH 528 0
DWIDTH 24 0
BBX 21 21 0 -1
BITMAP
e07000
f0f000
f0f000
fff000
0f0000
0f0010
7f07f0
f38ef0
f39e78
e79e10
c79e00
07fc00
07dc00
079c00
079c00
073c00
073c00
0f3c00
0f3c00
0f3c00
041000
ENDCHAR
STARTCHAR Zo
ENCODING  31819
SWIDTH 528 0
DWIDTH 23 0
BBX 20 15 1 0
BITMAP
0403f0
ff0ff0
f71cf0
e79c70
c7bc00
07fc00
07fc00
073c00
0f3c00
0f3c00
0f1800
0f0000
0f0000
0f0000
0f0000
ENDCHAR
STARTCHAR ZWa
ENCODING  31820
SWIDTH 528 0
DWIDTH 24 0
BBX 21 17 0 -2
BITMAP
1e07f0
f70ef0
f79e78
e79e38
c79e00
07fe00
07fe00
071e00
0f1c00
0f1c00
0f3c00
003c00
003c00
01ffc0
03ffe0
03c1e0
0380e0
ENDCHAR
STARTCHAR ye
ENCODING  31821
SWIDTH 288 0
DWIDTH 14 0
BBX 11 16 0 0
BITMAP
0fc0
39e0
79e0
71e0
f1e0
f3c0
f780
fc00
7800
7c00
3c00
3c00
3c00
3c00
3c00
3c00
ENDCHAR
STARTCHAR yu
ENCODING  31822
SWIDTH 312 0
DWIDTH 14 0
BBX 11 16 0 -1
BITMAP
1fc0
39c0
71c0
f1c0
f3c0
f380
ff00
f800
78c0
3fe0
3de0
3ce0
3c40
3c00
3c00
1000
ENDCHAR
STARTCHAR yi
ENCODING  31823
SWIDTH 432 0
DWIDTH 20 0
BBX 17 16 0 0
BITMAP
0fc000
39c000
71e000
f1e000
f3c000
f3c000
f70000
fc2000
79f000
7cf000
3ff000
3fff00
3cff00
3c0780
3c0380
3c0000
ENDCHAR
STARTCHAR ya
ENCODING  31824
SWIDTH 336 0
DWIDTH 16 0
BBX 13 18 1 -2
BITMAP
03f8
0678
0e78
1c78
1c78
1cf0
1fc0
1e00
1e00
1e00
0f00
0f00
0780
fe00
f800
f000
e000
8000
ENDCHAR
STARTCHAR yE
ENCODING  31825
SWIDTH 408 0
DWIDTH 19 0
BBX 16 16 0 0
BITMAP
0fc0
39c0
71e0
f1e0
f3c0
f3c0
f700
fc00
78fe
7fef
3def
3def
3cfe
3cfc
3c00
3c00
ENDCHAR
STARTCHAR y
ENCODING  31826
SWIDTH 384 0
DWIDTH 18 0
BBX 15 17 0 -2
BITMAP
01f8
0738
0e38
1e38
1e78
1e70
1fe0
1f80
1e1e
1e1e
1e1e
0f1c
1ff8
78e0
7000
f000
e000
ENDCHAR
STARTCHAR yo
ENCODING  31827
SWIDTH 384 0
DWIDTH 18 0
BBX 15 16 0 -1
BITMAP
1f80
39c0
71c0
f1fc
f3fe
f39e
fe0e
f800
7c00
3c00
3c00
3c00
3c00
3c00
3c00
1000
ENDCHAR
STARTCHAR yWa
ENCODING  31828
SWIDTH 288 0
DWIDTH 17 0
BBX 14 21 0 -1
BITMAP
e03c
f078
fff8
ffe0
0780
1fe0
39e0
79e0
79e0
79e0
7bc0
7f00
7800
7c00
3c00
3c00
3c00
3c00
3c00
3e00
1000
ENDCHAR
STARTCHAR de
ENCODING  31829
SWIDTH 408 0
DWIDTH 17 0
BBX 14 16 1 -1
BITMAP
03e0
0ef0
1ef0
1cf0
1cf0
3ce0
1fc0
1f00
1e00
0e00
0f08
7ff8
f878
f03c
e01c
4000
ENDCHAR
STARTCHAR du
ENCODING  31830
SWIDTH 528 0
DWIDTH 23 0
BBX 20 17 1 -1
BITMAP
00f800
03bc00
073c00
073c00
0f3c00
0f3800
0ff000
078000
078000
1ffe00
7bffe0
701fe0
f03ce0
e03cf0
003c00
003c00
003800
ENDCHAR
STARTCHAR di
ENCODING  31831
SWIDTH 528 0
DWIDTH 23 0
BBX 20 18 1 -2
BITMAP
01f800
03bc00
073c00
073c00
0f3c00
0f3800
0ff000
078000
078000
3ffe00
781e00
701c00
e03c00
403ce0
003de0
003fe0
0001f0
000040
ENDCHAR
STARTCHAR da
ENCODING  31832
SWIDTH 384 0
DWIDTH 18 0
BBX 15 16 1 0
BITMAP
00f8
03bc
073c
073c
0f3c
0f38
0ff0
0780
0780
3ffe
781e
701c
e01c
403c
003c
003c
ENDCHAR
STARTCHAR dE
ENCODING  31833
SWIDTH 480 0
DWIDTH 22 0
BBX 19 16 1 -1
BITMAP
03f000
067000
0e7800
1e7000
1c7000
1cf000
1fc000
1f0000
0e0000
0f0000
07cf80
7cfdc0
783de0
703de0
f01dc0
001f80
ENDCHAR
STARTCHAR d
ENCODING  31834
SWIDTH 480 0
DWIDTH 21 0
BBX 18 16 1 0
BITMAP
03e000
0ef000
1cf000
1cff80
1cf780
3ce3c0
1fc1c0
1f0000
1e0000
0e0000
0f0800
3ff800
f87800
f03800
f01800
400000
ENDCHAR
STARTCHAR do
ENCODING  31835
SWIDTH 384 0
DWIDTH 18 0
BBX 15 17 0 -1
BITMAP
03e0
0ef0
1ef0
1cf0
3cf0
3ce0
1fc0
1f00
1f80
3ffc
703c
701e
f00e
f000
f000
f000
6000
ENDCHAR
STARTCHAR dWa
ENCODING  31836
SWIDTH 528 0
DWIDTH 24 0
BBX 21 19 0 -4
BITMAP
03f000
067000
0e7000
1c7000
1cf000
1ce000
1fc000
1f0000
1e0000
0f0000
0f0000
7ffc00
787c00
703c00
e01c70
40fff0
00f070
00e078
01c020
ENDCHAR
STARTCHAR De
ENCODING  31837
SWIDTH 408 0
DWIDTH 17 0
BBX 14 18 1 0
BITMAP
07c0
0380
03e0
07f0
0ef0
1cf0
1cf0
3cf0
1de0
1f80
1e00
1e00
0f00
0ff8
7878
f03c
f03c
e000
ENDCHAR
STARTCHAR Du
ENCODING  31838
SWIDTH 528 0
DWIDTH 23 0
BBX 20 20 1 -1
BITMAP
00e000
01e000
01e000
01f800
03bc00
073c00
073c00
0f3c00
0f3800
0ff000
078000
078000
1ffe00
7bffe0
701fe0
f03ce0
e03cf0
003c00
003c00
003800
ENDCHAR
STARTCHAR Di
ENCODING  31839
SWIDTH 528 0
DWIDTH 23 0
BBX 20 21 1 -2
BITMAP
00e000
01e000
01e000
01f800
03fc00
07bc00
073c00
0f3c00
0f3800
0f7000
07c000
078000
1ffc00
7bfe00
701c00
f01c00
e03c40
003ce0
003fe0
0039e0
0000f0
ENDCHAR
STARTCHAR Da
ENCODING  31840
SWIDTH 384 0
DWIDTH 18 0
BBX 15 20 1 -1
BITMAP
00e0
01e0
01e0
01f8
03fc
07bc
073c
0f3c
0f3c
0f78
07e0
0780
1ffc
7bfe
701e
f01c
e03c
003c
003c
001c
ENDCHAR
STARTCHAR DE
ENCODING  31841
SWIDTH 480 0
DWIDTH 22 0
BBX 19 19 1 -1
BITMAP
03c000
03c000
03c000
03f000
0f7000
1e7800
1e7000
1c7000
1cf000
1fc000
1f0000
0e0000
0f0000
07cf80
7cfdc0
783de0
703de0
f01dc0
001f80
ENDCHAR
STARTCHAR D
ENCODING  31842
SWIDTH 480 0
DWIDTH 21 0
BBX 18 19 1 0
BITMAP
03c000
03c000
03c000
03e000
07f000
0ef000
1cff80
1cff80
3cf780
3ce3c0
1f8000
1e0000
1e0000
0f0000
0ff800
787800
f87800
f03c00
e00000
ENDCHAR
STARTCHAR Do
ENCODING  31843
SWIDTH 384 0
DWIDTH 18 0
BBX 15 20 0 0
BITMAP
03c0
03c0
03c0
03e0
07f0
0ef0
1cf0
3cf0
3cf0
3de0
1f80
0e00
1ffc
383c
703c
f01e
f000
f000
f000
f000
ENDCHAR
STARTCHAR DWa
ENCODING  31844
SWIDTH 408 0
DWIDTH 23 0
BBX 20 22 1 -4
BITMAP
07c000
038000
03e000
07f000
0e7000
1c7000
1c7000
1cf000
1ce000
1f8000
1e0000
0e0000
0f0000
0ff800
787c00
783c00
f03c00
e00ff0
00fff0
00e0f0
00e060
008000
ENDCHAR
STARTCHAR je
ENCODING  31845
SWIDTH 408 0
DWIDTH 19 0
BBX 16 20 1 -4
BITMAP
000e
781e
3ffe
7bcf
73e0
0670
0e78
0e78
1e70
1ef0
1fc0
1e00
1e00
0f00
0f00
3ffc
f83c
f03c
f01c
c000
ENDCHAR
STARTCHAR ju
ENCODING  31846
SWIDTH 480 0
DWIDTH 22 0
BBX 19 20 1 -4
BITMAP
201e00
787e00
7ffe00
7bce00
67e000
0e7000
1e7000
1ef000
1ef000
1fe000
1fc000
0e0000
1ff800
77ffc0
707fc0
f079c0
e070e0
00f000
00f800
004000
ENDCHAR
STARTCHAR ji
ENCODING  31847
SWIDTH 480 0
DWIDTH 21 0
BBX 18 21 1 -5
BITMAP
001e00
783e00
7ffe00
7bde00
77e000
0e7000
0e7000
1ef000
1ef000
1fe000
1fc000
0e0000
1ff800
77f800
707800
f07800
e07180
00f3c0
00ffc0
0043c0
000180
ENDCHAR
STARTCHAR ja
ENCODING  31848
SWIDTH 408 0
DWIDTH 18 0
BBX 15 20 1 -4
BITMAP
201e
787e
7ffe
7bce
67e0
0e70
1e70
1ef0
1ef0
1fe0
1fc0
0e00
1ff8
77f8
7078
f078
e078
0078
00f8
0040
ENDCHAR
STARTCHAR jE
ENCODING  31849
SWIDTH 456 0
DWIDTH 20 0
BBX 17 20 1 -4
BITMAP
001e00
701e00
7ffe00
7fde00
73e000
0e7000
0e7000
1e7000
1ef000
1ee000
1fc000
1e0000
1e0000
1e0000
0f1f00
3fff80
f07380
f07380
e07380
c03f00
ENDCHAR
STARTCHAR j
ENCODING  31850
SWIDTH 456 0
DWIDTH 21 0
BBX 18 20 0 -4
BITMAP
000e00
381e00
3ffe00
3fcf00
7be000
077000
0e7f80
0e7fc0
0e7bc0
1ef1c0
1fe000
1e0000
0e0000
0f0000
0f0000
3ffc00
f83c00
f83c00
f01c00
e00000
ENDCHAR
STARTCHAR jo
ENCODING  31851
SWIDTH 384 0
DWIDTH 18 0
BBX 15 20 1 -3
BITMAP
001c
f03c
7ffc
7f9e
e7e0
0cf0
1cf0
3cf0
3ce0
3dc0
1f80
1c00
1ff8
783c
703c
f01c
e000
e000
f000
f000
ENDCHAR
STARTCHAR jWa
ENCODING  31852
SWIDTH 408 0
DWIDTH 24 0
BBX 21 24 1 -8
BITMAP
000e00
781e00
3ffe00
7bce00
73e000
067000
0e7800
0e7800
1e7000
1ef000
1fc000
1e0000
1e0000
0f0000
0f0000
3ffc00
f83c00
f03c00
f01c00
c00ff0
00fff0
00f070
00e038
00c000
ENDCHAR
STARTCHAR ge
ENCODING  31853
SWIDTH 288 0
DWIDTH 12 0
BBX 9 14 1 0
BITMAP
1f00
ff80
f380
e380
c780
0780
0780
0780
0700
0f00
0f00
0f00
0f00
0f00
ENDCHAR
STARTCHAR gu
ENCODING  31854
SWIDTH 384 0
DWIDTH 18 0
BBX 15 14 1 0
BITMAP
1f80
ff80
f3c0
e380
c780
07fc
07fc
079e
070e
0f00
0f00
0f00
0f00
0f00
ENDCHAR
STARTCHAR gi
ENCODING  31855
SWIDTH 360 0
DWIDTH 17 0
BBX 14 15 1 -1
BITMAP
3f80
f780
f380
e780
c780
0780
0780
0780
0f00
0f00
0f00
0f3c
0ff8
0ffc
003c
ENDCHAR
STARTCHAR ga
ENCODING  31856
SWIDTH 360 0
DWIDTH 16 0
BBX 13 15 1 -1
BITMAP
07f0
1e78
1e78
1c78
1878
0078
0078
0070
00e0
01c0
0780
fc00
f000
e000
c000
ENDCHAR
STARTCHAR gE
ENCODING  31857
SWIDTH 360 0
DWIDTH 16 0
BBX 13 14 1 0
BITMAP
1f00
ff80
f3c0
e380
c780
0780
0780
0780
0720
0ff8
0f38
0f38
0ff8
0fe0
ENDCHAR
STARTCHAR g
ENCODING  31858
SWIDTH 336 0
DWIDTH 16 0
BBX 13 14 0 0
BITMAP
0ff0
7f78
e778
e778
ef78
7e70
00f0
00f0
00f0
00f0
00e0
01e0
01f0
00e0
ENDCHAR
STARTCHAR go
ENCODING  31859
SWIDTH 288 0
DWIDTH 14 0
BBX 11 17 0 0
BITMAP
0f00
0f00
0f00
0fc0
7fe0
f1e0
f1e0
e1e0
01c0
03c0
03c0
03c0
03c0
0380
0780
0780
0380
ENDCHAR
STARTCHAR gWe
ENCODING  31861
SWIDTH 480 0
DWIDTH 21 0
BBX 18 14 1 0
BITMAP
1f8000
ff8000
f3c000
e38000
c78000
07ff80
07fbc0
07bbc0
073bc0
0f1f00
0f0000
0f0000
0f0000
0f0000
ENDCHAR
STARTCHAR gWi
ENCODING  31863
SWIDTH 504 0
DWIDTH 22 0
BBX 19 14 0 0
BITMAP
1f8000
ffc000
f3dc00
e39e00
c39c00
07fc00
07fc00
07bfe0
0781e0
0700e0
0f0060
0f0000
0f0000
0f0000
ENDCHAR
STARTCHAR gWa
ENCODING  31864
SWIDTH 336 0
DWIDTH 15 0
BBX 12 15 0 0
BITMAP
3fc0
79c0
79c0
71c0
03c0
03c0
7ff0
78f0
f0f0
e1e0
01e0
01c0
03c0
03c0
03c0
ENDCHAR
STARTCHAR gWE
ENCODING  31865
SWIDTH 408 0
DWIDTH 19 0
BBX 16 17 0 -1
BITMAP
03e0
1ff0
1cf0
1cf0
18f0
00e0
00e0
01fc
01fe
01e7
01c7
03fe
3ff8
7800
7000
f000
4000
ENDCHAR
STARTCHAR gWu/gW
ENCODING  31866
SWIDTH 480 0
DWIDTH 22 0
BBX 19 14 0 0
BITMAP
3f8000
f3c400
f3de00
e3de00
c3de00
07fc00
07fbc0
0783c0
0781e0
0780c0
0f0000
0f0000
0f0000
070000
ENDCHAR
STARTCHAR Ge
ENCODING  31869
SWIDTH 288 0
DWIDTH 17 0
BBX 14 19 0 -1
BITMAP
0038
f078
fffc
f03c
e080
3fc0
39e0
39e0
71e0
01e0
01c0
03c0
03c0
03c0
03c0
03c0
0780
03c0
0200
ENDCHAR
STARTCHAR Gu
ENCODING  31870
SWIDTH 384 0
DWIDTH 19 0
BBX 16 19 0 -1
BITMAP
0038
f078
fffc
f03c
e080
3fe0
3de0
39e0
31e0
01e6
01ff
03cf
03c7
03c2
03c0
03c0
0780
03c0
0200
ENDCHAR
STARTCHAR Gi
ENCODING  32033
SWIDTH 360 0
DWIDTH 19 0
BBX 16 20 -1 -2
BITMAP
003e
f07e
fffe
f01e
e0e0
1ff0
1cf0
1cf0
38f0
00e0
01e0
01e0
01e0
01e0
01e0
03c7
03cf
03ff
010f
0007
ENDCHAR
STARTCHAR Ga
ENCODING  32034
SWIDTH 360 0
DWIDTH 19 0
BBX 16 19 1 -1
BITMAP
000e
781e
7fff
780f
70e0
0ff0
1e78
1e78
1c78
0078
0078
0070
00f0
00e0
03c0
7f00
f000
f000
e000
ENDCHAR
STARTCHAR GE
ENCODING  32035
SWIDTH 360 0
DWIDTH 19 0
BBX 16 19 -1 -1
BITMAP
001e
f03e
fffe
f01f
e040
1fe0
1cf0
1cf0
38f0
00f0
00e0
01e0
01e0
01fc
01ee
01ce
03ce
03fc
0100
ENDCHAR
STARTCHAR G
ENCODING  32036
SWIDTH 336 0
DWIDTH 19 0
BBX 16 19 0 -1
BITMAP
000e
f01e
ffff
f00f
e030
1ff8
37bc
73bc
73bc
7f38
3878
0078
0078
0078
0078
00f0
00f0
00f8
0040
ENDCHAR
STARTCHAR Go
ENCODING  32037
SWIDTH 288 0
DWIDTH 21 0
BBX 18 20 -2 0
BITMAP
000780
f00f80
ffff80
f3c7c0
e3c000
03c000
03f000
1ff800
1e3c00
1c3800
387800
007800
007800
007800
00f000
00f000
00f000
00f000
00f000
00f000
ENDCHAR
STARTCHAR GWa
ENCODING  32038
SWIDTH 336 0
DWIDTH 18 0
BBX 15 20 -1 0
BITMAP
003c
f07c
fffc
f03e
e000
1fe0
1cf0
1cf0
38f0
00e0
01e0
3ff8
3c3c
3c78
3878
00f0
00f0
00e0
01e0
01e0
ENDCHAR
STARTCHAR Te
ENCODING  32039
SWIDTH 480 0
DWIDTH 21 0
BBX 18 13 0 -1
BITMAP
03ff00
0fef80
1de3c0
39e3c0
79e3c0
71e3c0
f1e3c0
f1e3c0
f1e3c0
f1e3c0
f1e3c0
f1e3c0
408380
ENDCHAR
STARTCHAR Tu
ENCODING  32040
SWIDTH 624 0
DWIDTH 27 0
BBX 24 13 1 -1
BITMAP
03fe00
0fef00
1de380
39e3ce
79e3de
f1e3fe
f1e3cf
f1e3c0
f1e3c0
f1e3c0
f1e3c0
f1e3c0
418380
ENDCHAR
STARTCHAR Ti
ENCODING  32041
SWIDTH 600 0
DWIDTH 27 0
BBX 24 14 1 -2
BITMAP
03fe00
0fef80
1de380
39e3c0
79e3c0
f1e3c0
f1e3c0
f1e3c0
f1e3c0
f1e3c6
f1e3de
f1e3fe
41831e
00000f
ENDCHAR
STARTCHAR Ta
ENCODING  32042
SWIDTH 432 0
DWIDTH 20 0
BBX 17 15 1 -1
BITMAP
0ffe00
1fcf00
73c700
73c780
f3c700
f3cf00
f3cf00
f3cf00
f3cf00
000f00
000f00
000f00
001e00
001e00
000e00
ENDCHAR
STARTCHAR TE
ENCODING  32043
SWIDTH 576 0
DWIDTH 26 0
BBX 23 13 1 -1
BITMAP
03ff00
0fef80
1de380
39e3c0
79e3c0
f1e3c0
f1e380
f1e3f8
f1e3fc
f1e39e
f1e39e
f1e3fc
418330
ENDCHAR
STARTCHAR T
ENCODING  32044
SWIDTH 432 0
DWIDTH 19 0
BBX 16 14 1 1
BITMAP
0ff8
3fde
7bcf
73cf
f3cf
f3cf
f3c4
01c0
03c0
03c0
03c0
03c0
03c0
07c0
ENDCHAR
STARTCHAR To
ENCODING  32045
SWIDTH 456 0
DWIDTH 20 0
BBX 17 14 0 0
BITMAP
03ff00
0fe780
1de780
39e780
79e780
79e780
71e780
f1e780
f1e780
f1c000
f00000
f00000
f00000
700000
ENDCHAR
STARTCHAR TWa
ENCODING  32046
SWIDTH 528 0
DWIDTH 24 0
BBX 21 15 1 -1
BITMAP
07fe00
1fcf00
3bc700
73c780
f3c700
f3c700
f3cf00
f3cf00
f3cf00
000f00
000f00
003ff0
00fff8
00e078
00c038
ENDCHAR
STARTCHAR Ce
ENCODING  32047
SWIDTH 648 0
DWIDTH 29 0
BBX 26 13 0 -1
BITMAP
00ffe000
07fff000
1e787800
3c783c00
78783c00
78783c00
f8783c00
f6783c00
ff7fbfc0
f3f9bdc0
f3f9bcc0
ff7fbfc0
407e3f00
ENDCHAR
STARTCHAR Cu
ENCODING  32048
SWIDTH 696 0
DWIDTH 31 0
BBX 28 13 0 -1
BITMAP
00ffe000
07fff000
1e7878e0
3c783de0
78783fe0
78783df0
f8783c80
f6783c00
ff7fbfc0
f3f9bcc0
f3f9bcc0
ff7fbfc0
407e3f00
ENDCHAR
STARTCHAR Ci
ENCODING  32049
SWIDTH 696 0
DWIDTH 31 0
BBX 28 15 0 -3
BITMAP
00ffe000
07fff000
1e787800
3c783c00
78783c00
78783c00
f8783c00
f6783c00
ff7fbc00
f3f9bc00
f3f9bc00
ff7fbfe0
407e3fe0
000000e0
00000070
ENDCHAR
STARTCHAR Ca
ENCODING  32050
SWIDTH 624 0
DWIDTH 28 0
BBX 25 15 0 -1
BITMAP
03ffe000
1f78f000
38787800
70707800
feff7800
f7fff800
f7f3f800
f7f3f800
fefff000
0000f600
0000ff80
0000f380
0000f380
0000ff00
00006000
ENDCHAR
STARTCHAR CE
ENCODING  32051
SWIDTH 648 0
DWIDTH 29 0
BBX 26 13 0 -1
BITMAP
00ffe000
07fff000
1e787800
3c783c00
78783c00
78783c00
f8783c00
f6783c00
ff7fbfc0
f3f9bdc0
f3f9bdc0
ff7fbfc0
407e3f00
ENDCHAR
STARTCHAR C
ENCODING  32052
SWIDTH 624 0
DWIDTH 28 0
BBX 25 15 0 -1
BITMAP
07ffc000
1f78f000
38787000
70787f80
fe787b80
f7787b80
f37c7b80
fe3c7e00
f83c0000
003b0000
007f8000
0079c000
0079c000
007f8000
00200000
ENDCHAR
STARTCHAR Co
ENCODING  32053
SWIDTH 648 0
DWIDTH 29 0
BBX 26 14 1 0
BITMAP
01ffe000
0ff9f000
1c787000
38787800
78f07800
70ff7f80
f0f3f9c0
f0f3f9c0
f0f77f80
fe7e3e00
f7000000
f7000000
f7000000
fe000000
ENDCHAR
STARTCHAR CWa
ENCODING  32054
SWIDTH 648 0
DWIDTH 29 0
BBX 26 17 0 -3
BITMAP
03ffe000
0f7bf000
3c787800
78787800
70787800
f0787800
f0787800
fe7e7800
ff7f7800
f773f800
f773f800
feff7800
00707f80
0007ffc0
000783c0
000703c0
00060080
ENDCHAR
STARTCHAR Pe
ENCODING  32055
SWIDTH 312 0
DWIDTH 14 0
BBX 11 17 1 0
BITMAP
1e00
1e00
1e00
3f80
73c0
f3c0
f380
f780
7f00
1e80
3fc0
7bc0
f3e0
f1e0
f1e0
f1e0
f1e0
ENDCHAR
STARTCHAR Pu
ENCODING  32056
SWIDTH 432 0
DWIDTH 19 0
BBX 16 17 1 0
BITMAP
1e00
1e00
1e00
3f00
7380
e3c0
e380
e780
7f00
1e80
3fc0
7bef
f3ff
f1ef
f1e7
f1e0
f1e0
ENDCHAR
STARTCHAR Pi
ENCODING  32057
SWIDTH 456 0
DWIDTH 20 0
BBX 17 19 1 -2
BITMAP
1e0000
1e0000
1e0000
3f8000
73c000
f3c000
e38000
f78000
7f0000
1e0000
3fc000
7bc000
f3c000
f1e000
f1e700
f1e700
f1ff00
000780
000200
ENDCHAR
STARTCHAR Pa
ENCODING  32058
SWIDTH 312 0
DWIDTH 14 0
BBX 11 18 1 -1
BITMAP
1e00
1e00
1e00
3f80
7380
f3c0
f380
f780
7f00
1e00
3fc0
7fc0
f3e0
f3e0
f1e0
e1e0
01e0
00c0
ENDCHAR
STARTCHAR PE
ENCODING  32059
SWIDTH 408 0
DWIDTH 18 0
BBX 15 17 1 0
BITMAP
1e00
1e00
1e00
3f00
7380
f380
e380
f780
7f00
1e80
3fc0
7bc0
f3fc
f1ee
f1e6
f1ee
f1fc
ENDCHAR
STARTCHAR P
ENCODING  32060
SWIDTH 408 0
DWIDTH 19 0
BBX 16 17 0 0
BITMAP
1e00
1e00
1e00
3f80
73c0
f3fe
f3de
f78f
7f06
0e80
1fc0
39e0
71e0
71e0
f1e0
f1f0
f0f0
ENDCHAR
STARTCHAR Po
ENCODING  32061
SWIDTH 312 0
DWIDTH 14 0
BBX 11 17 1 0
BITMAP
1e00
1e00
1e00
3f80
7380
f3c0
f380
f780
7f00
1e80
3fc0
7be0
f1e0
f1e0
f1e0
f080
f000
ENDCHAR
STARTCHAR PWa
ENCODING  32062
SWIDTH 312 0
DWIDTH 20 0
BBX 17 21 0 -4
BITMAP
1e0000
1e0000
1e0000
1f8000
73c000
73c000
f3c000
738000
7f8000
0f0000
3fc000
7fe000
71e000
f1e000
f1e000
f1e000
01f200
1fff00
1e0700
1c0380
180000
ENDCHAR
STARTCHAR Se
ENCODING  32063
SWIDTH 312 0
DWIDTH 14 0
BBX 11 16 1 -1
BITMAP
0f80
7380
73c0
f380
f380
f700
7f00
1e00
3f80
7fc0
73c0
f3e0
f1e0
f1e0
f1e0
e0e0
ENDCHAR
STARTCHAR Su
ENCODING  32064
SWIDTH 432 0
DWIDTH 19 0
BBX 16 15 1 0
BITMAP
3f80
7380
e380
e380
e780
ff00
7e00
1c80
3fc0
7bef
f3ff
f1ef
f1e7
f1e0
f1e0
ENDCHAR
STARTCHAR Si
ENCODING  32065
SWIDTH 456 0
DWIDTH 20 0
BBX 17 17 1 -2
BITMAP
0f8000
738000
73c000
f38000
e38000
f70000
7f0000
1e0000
3f8000
7fc000
73c000
f3e000
f1e000
f1e700
f1ff00
e0ef00
000780
ENDCHAR
STARTCHAR Sa
ENCODING  32066
SWIDTH 312 0
DWIDTH 14 0
BBX 11 16 0 -1
BITMAP
0f00
7380
f3c0
e380
e380
f700
7f00
1e00
3f80
7fc0
f1c0
f1e0
f1e0
f1e0
01e0
0000
ENDCHAR
STARTCHAR SE
ENCODING  32067
SWIDTH 408 0
DWIDTH 18 0
BBX 15 16 1 -1
BITMAP
0f00
7380
f3c0
e380
e780
f700
7f00
1e00
3f80
7fc0
73c0
f3fe
f1ee
f1ee
f1fe
e0f8
ENDCHAR
STARTCHAR S
ENCODING  32068
SWIDTH 408 0
DWIDTH 18 0
BBX 15 16 1 -1
BITMAP
0f00
7380
f3fc
e3fc
e39e
f78e
7f00
1e00
3f80
7fc0
73e0
f3e0
f1e0
f1e0
f1e0
e0e0
ENDCHAR
STARTCHAR So
ENCODING  32069
SWIDTH 312 0
DWIDTH 14 0
BBX 11 16 1 -1
BITMAP
0f80
7380
73c0
f380
f380
f700
7f00
1e00
3fc0
7fc0
73e0
f1e0
f1e0
f1e0
f000
e000
ENDCHAR
STARTCHAR SWa
ENCODING  32070
SWIDTH 432 0
DWIDTH 20 0
BBX 17 19 0 -4
BITMAP
0f8000
33c000
73c000
f3c000
f38000
f78000
7f0000
0e0000
3fc000
3fc000
71e000
f1e000
f1e000
f1e000
01e200
1fff00
1e0f00
1c0780
180000
ENDCHAR
STARTCHAR `Se/S2e
ENCODING  32071
SWIDTH 264 0
DWIDTH 13 0
BBX 10 14 0 0
BITMAP
1f80
3bc0
73c0
73c0
f3c0
ffc0
ffc0
f3c0
f380
f380
f380
f780
ff00
7000
ENDCHAR
STARTCHAR `Su/S2u
ENCODING  32072
SWIDTH 408 0
DWIDTH 18 0
BBX 15 14 0 0
BITMAP
1f80
3bc0
73c0
73c0
f3c0
ffde
fffe
f3de
f38e
f380
f380
f780
ff00
7000
ENDCHAR
STARTCHAR `Si/S2i
ENCODING  32073
SWIDTH 360 0
DWIDTH 17 0
BBX 14 17 0 -1
BITMAP
3f00
7380
f3c0
ffc0
f3c0
f780
ff80
3f80
0780
0780
0f00
0f00
0f00
0f38
0ff8
0ff8
003c
ENDCHAR
STARTCHAR `Sa/S2a
ENCODING  32074
SWIDTH 264 0
DWIDTH 12 0
BBX 9 16 1 0
BITMAP
3f00
7f80
e780
ff80
ff80
e780
ff80
7f80
0f00
0f00
0f00
0f00
1e00
1e00
1e00
1e00
ENDCHAR
STARTCHAR `SE/S2E
ENCODING  32075
SWIDTH 336 0
DWIDTH 16 0
BBX 13 16 0 0
BITMAP
3f00
7380
f3c0
ffc0
f3c0
f7c0
ff80
3f80
0780
0780
0f00
0ff0
0f38
0f38
0f70
0fe0
ENDCHAR
STARTCHAR `S/S2
ENCODING  32076
SWIDTH 312 0
DWIDTH 14 0
BBX 11 16 0 0
BITMAP
0f00
0f00
0f00
0f00
0fc0
1de0
39e0
79e0
ffe0
f1e0
f1e0
f1e0
f1e0
f3c0
ff80
7c00
ENDCHAR
STARTCHAR `So/S2o
ENCODING  32077
SWIDTH 312 0
DWIDTH 14 0
BBX 11 16 1 0
BITMAP
03c0
0ce0
1ce0
3fe0
3ce0
3ce0
3cc0
1f80
1c00
3800
3800
7000
f000
f000
f000
f000
ENDCHAR
STARTCHAR fe
ENCODING  32079
SWIDTH 408 0
DWIDTH 18 0
BBX 15 14 0 0
BITMAP
01e0
01e0
01c0
03c0
0780
0f00
1e00
3c00
7f80
738c
f39c
f3bc
fffe
7c1e
ENDCHAR
STARTCHAR fu
ENCODING  32080
SWIDTH 408 0
DWIDTH 18 0
BBX 15 16 0 0
BITMAP
0780
0f80
0f00
1e00
3c00
7e00
ff8c
f7bc
f7fc
7ffe
0f1e
0f00
0e00
1e00
1e00
1e00
ENDCHAR
STARTCHAR fi
ENCODING  32081
SWIDTH 408 0
DWIDTH 19 0
BBX 16 15 0 0
BITMAP
01e0
01e0
01c0
03c0
0780
0f00
0f00
1e02
3f9f
739f
f39f
f39e
f7f8
ffc0
7000
ENDCHAR
STARTCHAR fa
ENCODING  32082
SWIDTH 408 0
DWIDTH 18 0
BBX 15 16 0 -1
BITMAP
0780
0780
0f00
1e00
3c00
7f00
ff80
f380
f7fe
7ffe
079e
078e
0780
0780
0780
0200
ENDCHAR
STARTCHAR fE
ENCODING  32083
SWIDTH 480 0
DWIDTH 21 0
BBX 18 17 0 -2
BITMAP
01e000
01e000
01c000
03c000
078000
0f0000
1f0000
3c0000
7f8000
738000
f38600
f39f80
f3f9c0
ff39c0
7039c0
003fc0
001f00
ENDCHAR
STARTCHAR f
ENCODING  32084
SWIDTH 384 0
DWIDTH 18 0
BBX 15 16 0 -1
BITMAP
07fc
1ffc
3c3c
781c
f000
f000
f780
f380
f784
7ffc
07bc
079e
078e
0780
0780
0200
ENDCHAR
STARTCHAR fo
ENCODING  32085
SWIDTH 408 0
DWIDTH 18 0
BBX 15 15 0 0
BITMAP
00fc
0fee
39ee
79ee
71ee
f0fc
f000
f000
ff00
ff80
f78c
f79c
f7fc
7ffe
781e
ENDCHAR
STARTCHAR fWa
ENCODING  32086
SWIDTH 408 0
DWIDTH 18 0
BBX 15 18 0 -3
BITMAP
0780
0780
0f00
1e00
3c00
7f00
fb80
f380
f7fe
7ffe
079e
078e
0780
0780
7ffc
7c3c
703c
601c
ENDCHAR
STARTCHAR pe
ENCODING  32087
SWIDTH 408 0
DWIDTH 18 0
BBX 15 16 1 0
BITMAP
03fc
fffc
f79e
e78e
c780
0780
0780
0780
0780
0780
0700
0700
0700
0700
0780
0700
ENDCHAR
STARTCHAR pu
ENCODING  32088
SWIDTH 408 0
DWIDTH 18 0
BBX 15 16 1 0
BITMAP
03fc
fffc
f79e
e78e
c780
0780
0788
07bc
07fc
07fc
073c
0700
0700
0780
0780
0700
ENDCHAR
STARTCHAR pi
ENCODING  32089
SWIDTH 408 0
DWIDTH 18 0
BBX 15 18 1 -2
BITMAP
003c
3ffc
ff9c
f79e
e780
c780
0780
0780
0700
0700
0700
0700
0700
0f1c
0f3c
07fc
043e
001c
ENDCHAR
STARTCHAR pa
ENCODING  32090
SWIDTH 456 0
DWIDTH 20 0
BBX 17 17 1 -1
BITMAP
000f80
0fff80
3fe780
3de380
39e000
31e000
01e000
01e000
01e000
01c000
01c000
038000
070000
fc0000
f00000
e00000
c00000
ENDCHAR
STARTCHAR pE
ENCODING  32091
SWIDTH 408 0
DWIDTH 18 0
BBX 15 16 1 0
BITMAP
03fc
fffc
f79e
e78e
c780
0780
0780
0780
0780
0780
07f0
07f8
0738
0738
07f8
07f0
ENDCHAR
STARTCHAR p
ENCODING  32092
SWIDTH 408 0
DWIDTH 18 0
BBX 15 16 1 0
BITMAP
003c
3ffc
ffbc
f79e
e780
c740
07c0
03c0
03c0
03c0
03c0
0380
0380
0780
0780
0380
ENDCHAR
STARTCHAR po
ENCODING  32093
SWIDTH 504 0
DWIDTH 22 0
BBX 19 16 1 -2
BITMAP
000fe0
03ffe0
0ff9e0
0f78e0
0e7800
0c7800
00f000
00e000
01c000
078000
1e0000
3c0000
780000
f00000
f00000
e00000
ENDCHAR
STARTCHAR pWa
ENCODING  32094
SWIDTH 456 0
DWIDTH 27 0
BBX 24 21 -5 -5
BITMAP
00001f
001fff
007fcf
007bc7
0073c0
0063c0
0003c0
0003c0
0003c0
000380
000380
000700
000e00
01f800
01e000
01c000
018000
7ffc00
781c00
f01e00
e00000
ENDCHAR
STARTCHAR mYa
ENCODING  32095
SWIDTH 480 0
DWIDTH 22 0
BBX 19 20 0 -1
BITMAP
0e0780
0f0780
0fff80
0ffc00
00ff80
3ffde0
73bde0
f3bde0
e7b9e0
e7b9e0
7f3fc0
3003c0
000780
000780
000780
000f00
000f00
000f00
000f00
000e00
ENDCHAR
STARTCHAR rYa
ENCODING  32096
SWIDTH 312 0
DWIDTH 19 0
BBX 16 18 0 0
BITMAP
700f
780f
7fff
7ff8
01e0
01e0
03c0
0380
0780
0f00
1e00
3800
70e0
f1f0
f0e0
f1e0
7f80
7c00
ENDCHAR
STARTCHAR fYa
ENCODING  32097
SWIDTH 408 0
DWIDTH 20 0
BBX 17 18 0 0
BITMAP
700780
780f00
7fff00
7ffc00
01e000
01c000
03c000
078000
0f0000
0f0000
1e0200
3f9e00
739f00
f39e00
f39e00
f7f800
ffc000
700000
ENDCHAR
STARTCHAR Ethiopic-Space
ENCODING  32103
SWIDTH 192 0
DWIDTH 15 0
BBX 0 0 0 1
BITMAP
ENDCHAR
STARTCHAR Ethiopic-Wordspace
ENCODING  32104
SWIDTH 192 0
DWIDTH 8 0
BBX 5 11 2 2
BITMAP
78
f8
f0
f0
40
00
70
f0
f0
f0
c0
ENDCHAR
STARTCHAR Ethiopic-Full-Stop
ENCODING  32105
SWIDTH 384 0
DWIDTH 13 0
BBX 10 11 4 2
BITMAP
13c0
7bc0
f780
f780
f200
0180
77c0
f780
f780
f780
c000
ENDCHAR
STARTCHAR Ethiopic-Comma
ENCODING  32106
SWIDTH 312 0
DWIDTH 11 0
BBX 8 13 1 0
BITMAP
7f
ff
c0
00
3e
3c
3c
00
00
3c
3c
3c
30
ENDCHAR
STARTCHAR Ethiopic-Semicolon
ENCODING  32107
SWIDTH 288 0
DWIDTH 12 0
BBX 9 15 2 1
BITMAP
7f80
7f80
4000
1e00
1e00
1e00
1e00
0000
0e00
1e00
1e00
3c00
0000
ff00
ff00
ENDCHAR
STARTCHAR Ethiopic-Colon
ENCODING  32108
SWIDTH 384 0
DWIDTH 16 0
BBX 13 12 2 2
BITMAP
0780
0f00
0f00
0700
00f8
fff8
ff80
0000
0f00
0f00
0f00
0e00
ENDCHAR
STARTCHAR Ethiopic-Preface-Colon
ENCODING  32109
SWIDTH 384 0
DWIDTH 15 0
BBX 12 11 3 1
BITMAP
7000
f000
f000
f000
e7f0
07f0
f000
f000
f000
f000
e000
ENDCHAR
STARTCHAR Ethiopic-Question-Mark
ENCODING  32110
SWIDTH 192 0
DWIDTH 8 0
BBX 5 17 2 0
BITMAP
78
78
f0
f0
40
00
78
f8
f0
f0
40
00
70
f0
f0
f0
c0
ENDCHAR
STARTCHAR Ethiopic-End-Paragraph
ENCODING  32111
SWIDTH 312 0
DWIDTH 20 0
BBX 17 17 -3 -1
BITMAP
01e000
01e000
03c180
33c780
f10780
f00f00
f1cf00
e3c000
03c000
03c780
73c780
f00f00
f0cf00
f3c400
c3c000
03c000
038000
ENDCHAR
STARTCHAR Ethiopic-1
ENCODING  32112
SWIDTH 336 0
DWIDTH 15 0
BBX 12 21 1 -1
BITMAP
3fe0
38e0
30f0
2600
1f00
0f00
1e00
1e00
1f80
3dc0
79e0
79e0
71e0
f1e0
71c0
3f80
0000
ff80
e380
e1c0
c080
ENDCHAR
STARTCHAR Ethiopic-2
ENCODING  32113
SWIDTH 288 0
DWIDTH 14 0
BBX 11 21 0 -1
BITMAP
3fc0
39c0
71e0
2000
1f80
39c0
79c0
73c0
f380
ff00
f000
7200
7f80
7b80
3b80
1f00
0000
7f80
f780
e380
c180
ENDCHAR
STARTCHAR Ethiopic-3
ENCODING  32114
SWIDTH 288 0
DWIDTH 14 0
BBX 11 21 1 -1
BITMAP
3fc0
39c0
30e0
2000
0fc0
7fc0
79c0
78e0
7800
7800
7800
7800
f000
f000
f800
7000
0000
ff80
e780
e380
8000
ENDCHAR
STARTCHAR Ethiopic-4
ENCODING  32115
SWIDTH 312 0
DWIDTH 15 0
BBX 12 21 0 -1
BITMAP
3fe0
38e0
3070
2000
0f80
1fc0
39e0
39e0
79e0
79e0
79e0
79e0
79c0
7bc0
3f80
0e00
0000
7f80
e3c0
e1c0
c080
ENDCHAR
STARTCHAR Ethiopic-5
ENCODING  32116
SWIDTH 312 0
DWIDTH 15 0
BBX 12 22 0 -1
BITMAP
3fc0
3de0
38e0
3740
0f00
0f00
0f00
1fe0
1ff0
3cf0
7870
7000
f000
f1c0
f3c0
7fe0
39e0
0080
7f80
7380
61c0
4080
ENDCHAR
STARTCHAR Ethiopic-6
ENCODING  32117
SWIDTH 312 0
DWIDTH 15 0
BBX 12 22 1 -1
BITMAP
7fc0
71c0
70e0
6040
6000
7f80
7780
e780
0780
0f00
0f00
0fe0
1ef0
1ef0
1ee0
1fc0
0000
0000
ffc0
e380
e1c0
0000
ENDCHAR
STARTCHAR Ethiopic-7
ENCODING  32118
SWIDTH 336 0
DWIDTH 16 0
BBX 13 21 1 -1
BITMAP
3fe0
38e0
70e0
2000
0000
7f00
f780
e780
c700
0f00
0f00
0e00
1e30
1ef0
1ff0
18f0
0078
01e0
3fe0
38e0
3060
ENDCHAR
STARTCHAR Ethiopic-8
ENCODING  32119
SWIDTH 384 0
DWIDTH 18 0
BBX 15 21 0 -1
BITMAP
1ff8
0e38
1c38
0800
0000
7ffc
7b9c
739e
6780
0780
0780
0780
0780
7ffc
fc3c
f01c
e00c
1fe0
3fe0
38e0
7060
ENDCHAR
STARTCHAR Ethiopic-9
ENCODING  32120
SWIDTH 312 0
DWIDTH 15 0
BBX 12 21 0 -1
BITMAP
3ff0
38f0
3870
2000
0020
39e0
3df0
3cf0
3df0
3ff0
3de0
39e0
79e0
79c0
7980
3f00
0000
7fc0
71c0
e1c0
c0c0
ENDCHAR
STARTCHAR Ethiopic-10
ENCODING  32121
SWIDTH 288 0
DWIDTH 14 0
BBX 11 22 1 -1
BITMAP
7fc0
71c0
71e0
60c0
0000
1f00
1f00
1e00
1e00
1e00
1e00
1e00
1e00
1e00
1e00
1c00
0000
0000
ffc0
f1c0
e1c0
0000
ENDCHAR
STARTCHAR Ethiopic-20
ENCODING  32122
SWIDTH 384 0
DWIDTH 17 0
BBX 14 22 1 -1
BITMAP
3ff0
1c70
3870
1000
0ff8
fffc
f7bc
e79c
0f00
0f00
1fc0
3fe0
78e0
78e0
78f0
f8f0
70f0
0000
7fc0
7fe0
70e0
e0e0
ENDCHAR
STARTCHAR Ethiopic-30
ENCODING  32123
SWIDTH 384 0
DWIDTH 18 0
BBX 15 21 0 -1
BITMAP
0ff8
0e38
0c18
0800
0000
087c
31fe
73de
f3de
f3de
f39e
f39e
f39e
7f1e
3c1e
001c
0000
3fe0
38e0
38e0
3060
ENDCHAR
STARTCHAR Ethiopic-40
ENCODING  32124
SWIDTH 384 0
DWIDTH 18 0
BBX 15 22 1 -1
BITMAP
1ff8
1c78
3838
3010
010c
f7be
f79e
f79e
f7bc
f7fc
fe3c
f03c
0038
0078
0078
0078
0078
0000
7fc0
7fe0
60e0
e060
ENDCHAR
STARTCHAR Ethiopic-50
ENCODING  32125
SWIDTH 312 0
DWIDTH 14 0
BBX 11 22 0 -2
BITMAP
7fe0
78e0
70e0
2000
39e0
79e0
39e0
39e0
39e0
3fc0
13c0
03c0
03c0
03c0
0380
0780
0380
0000
ffc0
f1c0
e1c0
0000
ENDCHAR
STARTCHAR Ethiopic-60
ENCODING  32126
SWIDTH 384 0
DWIDTH 17 0
BBX 14 21 1 -1
BITMAP
1ff0
1c70
1830
1000
7ffc
7ffc
779c
e79c
0780
03c0
03c0
0780
0780
0ff8
fff8
f038
e01c
01c0
3fe0
38e0
7060
ENDCHAR
STARTCHAR Ethiopic-70
ENCODING  32289
SWIDTH 384 0
DWIDTH 17 0
BBX 14 22 0 -2
BITMAP
1ff8
1c38
1818
1000
01f8
1f9c
3b9c
739c
73fc
f1f0
f000
f000
f0e0
f1e0
ffe0
7ef0
0040
0040
7fe0
70e0
6070
0000
ENDCHAR
STARTCHAR Ethiopic-80
ENCODING  32290
SWIDTH 504 0
DWIDTH 22 0
BBX 19 21 1 -1
BITMAP
0ffc00
071c00
0e0e00
040000
3fffc0
ffffc0
f7bde0
e738e0
073800
0f3800
0f7800
0f7800
0f7800
0f7800
0f7800
0e3000
000000
0ff800
1ff800
1c3800
181800
ENDCHAR
STARTCHAR Ethiopic-90
ENCODING  32291
SWIDTH 312 0
DWIDTH 14 0
BBX 11 22 1 -2
BITMAP
7fe0
38e0
70e0
2000
3f80
73c0
7380
e780
4780
07c0
0380
0780
0780
0700
0f00
0f00
0f00
0000
ffc0
f1c0
e1c0
0000
ENDCHAR
STARTCHAR Ethiopic-100
ENCODING  32292
SWIDTH 312 0
DWIDTH 15 0
BBX 12 22 1 -2
BITMAP
3fe0
38e0
30f0
2000
1fc0
39c0
79c0
71c0
73c0
7f80
7c00
7800
3c00
3c00
3c00
3c00
3c00
0000
7fc0
f1c0
e1c0
c080
ENDCHAR
STARTCHAR Ethiopic-10000
ENCODING  32293
SWIDTH 480 0
DWIDTH 23 0
BBX 20 22 0 -1
BITMAP
1fff80
1e0780
1c0380
180100
0f03c0
3b8ee0
73dcf0
f3fcf0
f3bce0
f73dc0
fe3f80
f7fc00
7ffe00
781e00
781e00
781e00
781e00
201800
0ffc00
3ffe00
380e00
300600
ENDCHAR
STARTCHAR Ethiopic-Gemination
ENCODING  32377
SWIDTH 216 0
DWIDTH 14 0
BBX 11 3 2 15
BITMAP
f1e0
f1e0
e1e0
ENDCHAR
STARTCHAR Ethiopic-Sarcasm-Mark
ENCODING  32378
SWIDTH 168 0
DWIDTH 6 0
BBX 3 14 2 0
BITMAP
e0
e0
00
40
40
c0
e0
e0
e0
e0
e0
e0
e0
40
ENDCHAR
STARTCHAR Ethiopic-Point
ENCODING  32379
SWIDTH 216 0
DWIDTH 6 0
BBX 3 3 2 -1 
BITMAP
e0
e0
e0
ENDCHAR
STARTCHAR Ethiopic-Left-Quote
ENCODING  32380
SWIDTH 384 0
DWIDTH 17 0
BBX 12 13 3 1
BITMAP
0730
0e70
1cf0
39c0
7380
e700
e700
7380
39c0
1ce0
0e70
0730
0200
ENDCHAR
STARTCHAR Ethiopic-Right-Quote
ENCODING  32381
SWIDTH 384 0
DWIDTH 15 0
BBX 12 13 0 1
BITMAP
8c00
ce00
e700
7380
39c0
1cf0
0e70
1ce0
39c0
7380
e700
ce00
0c00
ENDCHAR
STARTCHAR Ethiopic-Sylized-Question-Mark
ENCODING  32382
SWIDTH 168 0
DWIDTH 8 0
BBX 5 14 2 0
BITMAP
e0
f0
10
08
08
18
70
60
40
00
00
00
e0
e0
ENDCHAR
ENDFONT
